<?xml version="1.0" encoding="UTF-8" standalone="no"?>
<!-- Created with Inkscape (http://www.inkscape.org/) -->

<svg
   xmlns:dc="http://purl.org/dc/elements/1.1/"
   xmlns:cc="http://creativecommons.org/ns#"
   xmlns:rdf="http://www.w3.org/1999/02/22-rdf-syntax-ns#"
   xmlns:svg="http://www.w3.org/2000/svg"
   xmlns="http://www.w3.org/2000/svg"
   xmlns:sodipodi="http://sodipodi.sourceforge.net/DTD/sodipodi-0.dtd"
   xmlns:inkscape="http://www.inkscape.org/namespaces/inkscape"
   version="1.1"
   id="svg186"
   width="128"
   height="99.839996"
   viewBox="0 0 128 99.839996"
   sodipodi:docname="genrecipe-img-2.svg"
   inkscape:version="0.92.3 (unknown)">
  <path
     style="stroke-width:0.31999999"
     d="m 34.24,99.384815 c 0,-0.53712 -1.3973,-1.00886 -3.84,-1.29644 -0.968,-0.11396 -2.336,-0.54101 -3.04,-0.949 -0.704,-0.40799 -1.7785,-0.8494 -2.38778,-0.9809 -0.60928,-0.13151 -1.61728,-0.556892 -2.24,-0.945298 C 22.1095,94.824771 20.664,93.951945 19.52,93.273567 16.63061,91.560198 12.56507,88.0415 10.10071,85.121229 8.02289,82.65903 5.76,79.500598 5.76,79.062704 5.76,78.934563 5.34352,78.193034 4.8345,77.414858 4.32547,76.636685 3.80402,75.495997 3.67571,74.879997 c -0.12831,-0.616 -0.56455,-1.696 -0.96943,-2.4 -0.40488,-0.704 -0.83259,-2 -0.95045,-2.88 -0.35639,-2.660784 -0.78767,-4 -1.28817,-4 C 0.0638,65.599997 0,63.460647 0,49.919998 0,36.379349 0.0638,34.239999 0.46766,34.239999 c 0.5005,0 0.93178,-1.339216 1.28817,-4 0.11786,-0.88 0.54557,-2.176 0.95045,-2.88 0.40488,-0.704 0.83915,-1.784 0.96504,-2.4 0.1259,-0.616 0.55068,-1.624 0.94396,-2.24 0.39328,-0.616 1.2707,-2.056 1.94981,-3.2 C 9.27379,14.95705 14.96241,9.2690216 19.52,6.5664276 20.664,5.8880496 22.1095,5.0152254 22.73222,4.6268184 23.35494,4.238411 24.36294,3.8130286 24.97222,3.6815237 25.5815,3.5500191 26.656,3.1102816 27.36,2.7043296 28.12499,2.2632072 29.65098,1.8276473 31.1527,1.621789 33.94302,1.2392877 34.24,1.1276386 34.24,0.4611145 34.24,0.0682879 35.92234,0 45.6,0 c 9.41418,0 11.36,0.075212 11.36,0.4391013 0,0.589446 1.23541,0.7576449 8.64318,1.1767524 4.42801,0.2505226 7.11848,0.5677851 9.27682,1.093929 1.672,0.4075883 4.32073,0.831062 5.88608,0.9410524 1.79303,0.1259891 3.39143,0.4423676 4.32,0.8550767 0.81065,0.3603018 2.61014,0.7858681 3.99885,0.945703 1.42872,0.1644387 3.08878,0.5844978 3.82363,0.9675248 0.71428,0.372303 2.13161,0.811054 3.14963,0.975 1.01801,0.163947 2.52283,0.655334 3.34403,1.091972 0.82121,0.436639 1.88356,0.793888 2.36078,0.793888 0.47723,0 1.38883,0.353653 2.02577,0.7858964 0.63695,0.432243 1.71824,0.936731 2.40288,1.121085 0.68464,0.184354 1.5876,0.599654 2.00657,0.922888 0.41898,0.323235 1.24055,0.751011 1.82572,0.950615 0.58517,0.199603 1.49622,0.72665 2.02455,1.171216 0.52834,0.444564 1.09232,0.808299 1.25329,0.808299 0.32726,0 2.36012,1.51207 4.8091,3.577085 1.66431,1.403362 6.04912,6.405839 6.04912,6.901222 0,0.152016 0.423,0.943401 0.94001,1.758634 0.517,0.815232 1.08965,2.291757 1.27256,3.281166 0.38593,2.087688 0.5385,2.401893 1.16632,2.401893 0.39465,0 0.46111,2.075452 0.46111,14.399999 0,12.237737 -0.0683,14.4 -0.45518,14.4 -0.47038,0 -0.94303,1.198531 -1.29137,3.274633 -0.24563,1.463984 -2.20108,5.346467 -3.8553,7.654585 -3.28261,4.580205 -9.27225,9.455446 -12.75033,10.37808 -0.8537,0.226464 -1.81759,0.651945 -2.14198,0.945517 -0.66793,0.604464 -3.1568,0.941177 -9.42584,1.275193 -2.288,0.121907 -5.168,0.431984 -6.4,0.689059 -1.232,0.257079 -3.5974,0.600103 -5.25644,0.762279 -1.97345,0.192912 -3.4663,0.52935 -4.3175,0.973017 -0.71559,0.372986 -2.12821,0.795069 -3.13916,0.937968 -1.01095,0.142896 -2.2707,0.567859 -2.79946,0.944365 -0.52875,0.376502 -1.50273,0.769328 -2.1644,0.872947 -0.66167,0.103616 -1.97931,0.598784 -2.92809,1.100375 -0.94877,0.50159 -2.03135,0.91198 -2.40571,0.91198 -0.37438,0 -1.20536,0.356535 -1.84665,0.792301 -0.64129,0.435766 -1.84638,0.944781 -2.67798,1.131149 -0.83161,0.186365 -1.85066,0.605229 -2.26456,0.930803 -0.4139,0.325574 -1.43377,0.694106 -2.26637,0.818966 -0.8326,0.12486 -2.16879,0.55891 -2.96932,0.96457 -0.80053,0.40566 -2.317,0.83695 -3.36993,0.95844 -2.86502,0.33055 -4.31443,0.76597 -4.31443,1.2961 0,0.39667 -1.11738,0.46767 -7.36,0.46767 -6.15055,0 -7.36,-0.0748 -7.36,-0.45518 z M 45.6,94.709606 c 0.704,-0.173319 2.648,-0.449613 4.32,-0.613994 2.2108,-0.21735 3.46939,-0.522093 4.61423,-1.117241 0.86583,-0.450106 2.00518,-0.818375 2.53189,-0.818375 0.52671,0 1.5463,-0.338758 2.26576,-0.752796 0.71946,-0.414039 2.01554,-0.92601 2.88016,-1.137712 0.86463,-0.211703 1.91287,-0.653005 2.32942,-0.980669 0.41656,-0.327661 1.35897,-0.697389 2.09424,-0.821613 0.73528,-0.124224 1.84704,-0.558483 2.47059,-0.965018 0.62354,-0.406537 1.70971,-0.840246 2.41371,-0.963798 0.704,-0.123552 1.856,-0.551408 2.56,-0.950787 0.704,-0.399379 1.928,-0.829398 2.72,-0.955597 0.792,-0.126198 2.088,-0.55487 2.88,-0.952608 0.85492,-0.429334 2.40428,-0.819027 3.8133,-0.95911 1.30532,-0.129773 3.32132,-0.520934 4.48,-0.869248 1.65624,-0.497878 3.54984,-0.682493 8.85591,-0.863389 5.98563,-0.204061 6.89655,-0.306886 8.05144,-0.908848 0.71622,-0.373315 1.89403,-0.838112 2.61735,-1.032883 0.72333,-0.194771 1.83628,-0.707786 2.47323,-1.140026 0.63694,-0.432243 1.32541,-0.785897 1.52992,-0.785897 0.58059,0 6.22361,-5.400413 7.16373,-6.85575 1.65343,-2.559571 3.57512,-6.695238 3.57512,-7.694013 0,-0.55774 0.22459,-1.770342 0.49908,-2.694668 1.17398,-3.953197 0.0225,-4.544848 -2.92892,-1.50498 -1.56669,1.61362 -2.25957,2.109412 -2.94795,2.109412 -1.2104,0 -1.93365,-0.596522 -2.16743,-1.787636 -0.1689,-0.860572 0.0199,-1.2311 1.46739,-2.879999 1.82684,-2.081012 3.42784,-4.401059 4.39741,-6.372365 0.34626,-0.704 0.86511,-1.712 1.15302,-2.24 0.2879,-0.528 0.52605,-1.464 0.52923,-2.08 0.003,-0.616 0.21835,-1.912 0.47817,-2.88 0.60245,-2.244508 0.60245,-5.115491 0,-7.359999 -0.25982,-0.968 -0.47624,-2.12 -0.48092,-2.56 -0.005,-0.44 -0.21622,-1.16 -0.47009,-1.6 -0.25386,-0.44 -0.85146,-1.570489 -1.32799,-2.512197 -0.91885,-1.815824 -4.75808,-5.98409 -7.161,-7.774726 -1.77009,-1.319058 -5.2767,-3.473077 -5.65395,-3.473077 -0.15262,0 -0.7964,-0.352609 -1.43062,-0.783576 -0.63422,-0.430967 -1.56765,-0.880001 -2.07428,-0.997854 -0.50663,-0.117853 -1.49715,-0.537838 -2.20115,-0.9333 -0.704,-0.395462 -1.84805,-0.822214 -2.54233,-0.948339 -0.69428,-0.126124 -1.91828,-0.556913 -2.72,-0.957309 -0.80172,-0.400396 -2.14432,-0.818217 -2.98356,-0.928492 -0.83924,-0.110276 -2.20724,-0.510898 -3.04,-0.890273 C 89.80135,10.141482 88.00836,9.7067086 86.64969,9.5546946 85.29103,9.4026806 83.41925,8.9786836 82.49018,8.6124806 81.39573,8.1810856 79.50511,7.8459746 77.12048,7.6607006 75.09622,7.5034256 72.432,7.0798566 71.2,6.7194366 69.40287,6.1936886 67.40995,6.0023826 61.12,5.751834 56.808,5.5800731 52.2,5.3019678 50.88,5.1338225 47.74483,4.7344565 39.23539,4.7291291 37.6,5.1255125 c -0.704,0.1706323 -2.51013,0.4433642 -4.01362,0.606071 -1.89119,0.2046651 -3.21252,0.5504701 -4.28766,1.1221251 -0.85472,0.454463 -1.8566,0.828916 -2.22638,0.832118 -0.36979,0.0032 -1.30601,0.435203 -2.0805,0.96 -0.77448,0.524797 -1.53211,0.954177 -1.68362,0.954177 -0.97387,0 -6.78228,4.7431594 -9.4549,7.7209054 C 12.15462,19.21353 9.6,22.80126 9.6,23.294291 c 0,0.159173 -0.42938,0.923074 -0.95418,1.697558 -0.5248,0.774485 -0.95734,1.696154 -0.9612,2.048154 -0.004,0.352 -0.43795,1.504 -0.96462,2.56 -0.67427,1.351926 -0.95943,2.393395 -0.9638,3.52 -0.003,0.88 -0.21482,2.464 -0.4698,3.52 -0.59086,2.447014 -0.59367,6.450134 -0.006,9.119999 0.25163,1.144 0.46257,2.739594 0.46876,3.545766 0.007,0.904084 0.31337,2.062557 0.79968,3.02314 0.43364,0.856553 0.88088,1.996959 0.99386,2.534233 0.3996,1.900336 3.84134,7.468038 6.47666,10.477305 2.19545,2.506979 5.13999,4.995299 7.96439,6.730387 0.49315,0.30296 1.11265,0.683571 1.37665,0.845805 1.53134,0.941043 4.59251,2.283363 5.20722,2.283363 0.39483,0 1.43298,0.380682 2.307,0.845958 1.41608,0.75384 2.07785,0.869978 6.07745,1.06656 6.89022,0.338659 13.41699,-0.03604 15.29522,-0.878092 0.8398,-0.376496 2.33162,-0.8333 3.31517,-1.01512 0.98355,-0.181818 2.24045,-0.608452 2.79311,-0.948074 0.55265,-0.339622 1.58083,-0.716794 2.28483,-0.838157 0.704,-0.121363 1.7895,-0.547315 2.41222,-0.946557 0.62272,-0.399241 1.63072,-0.830153 2.24,-0.95758 0.60928,-0.127424 1.68816,-0.565111 2.39753,-0.972631 0.70936,-0.407523 1.86136,-0.847766 2.56,-0.97832 0.69863,-0.130553 1.77425,-0.564748 2.39025,-0.96488 0.616,-0.400128 1.84,-0.828611 2.72,-0.952182 0.88,-0.123571 2.176,-0.548931 2.88,-0.945245 0.704,-0.396313 2.07511,-0.806864 3.04691,-0.912332 0.97181,-0.105466 2.78691,-0.538682 4.03357,-0.962698 1.98424,-0.67488 3.10657,-0.800186 9.00775,-1.005677 l 6.74109,-0.234739 0.84521,0.845213 c 0.62309,0.623081 0.78916,1.03303 0.6319,1.559881 -0.48032,1.609223 -0.90551,1.732058 -7.1908,2.077383 -4.22888,0.232342 -6.28944,0.479702 -7.2,0.864316 -0.7016,0.296352 -2.45117,0.662362 -3.88795,0.813357 -1.78506,0.187597 -3.10162,0.535011 -4.15745,1.097075 -0.84983,0.452397 -1.97829,0.823082 -2.50769,0.823744 -0.5294,6.4e-4 -1.82654,0.432122 -2.88254,0.958797 -1.056,0.526675 -2.22391,0.958134 -2.59535,0.958797 -0.37144,6.4e-4 -1.16955,0.336582 -1.77359,0.746493 -0.60403,0.409907 -1.80194,0.92248 -2.66201,1.139049 -0.86007,0.216567 -1.93881,0.660819 -2.39721,0.987229 -0.4584,0.32641 -1.40459,0.697242 -2.10265,0.824074 -0.69805,0.126835 -1.84519,0.563759 -2.54919,0.97095 -0.704,0.40719 -1.928,0.840195 -2.72,0.962237 -0.792,0.122038 -2.088,0.542992 -2.88,0.935452 -0.82509,0.408858 -2.39653,0.804324 -3.68,0.926103 -1.232,0.116893 -4.00817,0.448185 -6.16927,0.736205 -3.63849,0.484918 -4.20683,0.484908 -7.68,-1.32e-4 -2.0629,-0.288089 -4.54273,-0.612816 -5.51073,-0.721609 -0.968,-0.108794 -2.408,-0.527735 -3.2,-0.930976 -0.792,-0.403245 -2.05125,-0.835859 -2.79833,-0.961367 -0.74707,-0.125507 -1.44798,-0.373273 -1.55757,-0.550592 -0.10959,-0.177321 -1.08235,-0.71863 -2.16168,-1.202912 -1.07933,-0.484278 -2.16005,-1.118668 -2.4016,-1.409756 -0.24155,-0.291085 -0.60543,-0.529245 -0.80862,-0.529245 -1.40666,0 -10.12214,-8.484243 -11.49208,-11.187177 C 7.03965,63.265665 6.19901,62.79339 5.71028,63.28212 c -0.61304,0.613037 0.13803,5.36752 1.14796,7.266937 0.45219,0.850448 0.82277,1.848819 0.82353,2.218605 7.7e-4,0.369785 0.43213,1.320339 0.95863,2.112339 0.52649,0.792 0.95787,1.546528 0.95863,1.676726 0.004,0.611898 3.02038,4.765731 4.70866,6.483274 3.88336,3.950672 7.92592,7.199999 8.95768,7.199999 0.17529,0 0.95239,0.42938 1.72687,0.954176 0.77449,0.524797 1.69616,0.957341 2.04816,0.961204 0.352,0.0039 1.504,0.437945 2.56,0.96462 1.33639,0.666522 2.40634,0.96208 3.52,0.972355 0.88,0.0081 2.392,0.212413 3.36,0.453988 2.07587,0.518057 7.29906,0.611561 9.12,0.163267 z M 36,71.680464 c -1.76046,-0.151593 -3.10969,-0.48494 -4.32,-1.067328 -0.968,-0.465788 -2.06458,-0.848294 -2.43685,-0.850012 -0.37226,-0.0016 -1.02026,-0.273136 -1.44,-0.603149 -0.41973,-0.33001 -1.28677,-0.87001 -1.92676,-1.2 -1.93351,-0.996957 -4.86631,-3.171062 -6.4646,-4.792259 -2.32253,-2.355802 -6.28776,-8.07279 -6.29565,-9.076928 -0.002,-0.269936 -0.37601,-1.13879 -0.83086,-1.93079 -0.92067,-1.603066 -1.75395,-6.619449 -1.80731,-10.88 -0.0475,-3.796086 0.83719,-9.181775 1.80827,-11.00766 0.45857,-0.862213 0.83376,-1.808561 0.83376,-2.102995 0,-0.294434 0.42799,-1.100987 0.9511,-1.79234 0.5231,-0.691352 0.9551,-1.368475 0.96,-1.504718 0.0182,-0.505263 2.29588,-3.550348 3.92563,-5.248175 1.5962,-1.662876 5.33594,-4.573874 5.90061,-4.593013 0.14446,-0.0049 0.82831,-0.436896 1.51966,-0.96 0.69135,-0.523104 1.49791,-0.951098 1.79234,-0.951098 0.29444,0 1.24078,-0.375407 2.103,-0.834237 2.73371,-1.454758 11.20448,-2.3126954 17.80314,-1.803138 2.8987,0.223841 3.90252,0.423073 4.4,0.873285 0.76139,0.68905 0.83532,1.989272 0.16734,2.942948 -0.46397,0.662422 -0.72282,0.684302 -9.36,0.791202 -8.57642,0.106148 -8.92304,0.13495 -10.04878,0.835002 -0.64128,0.398784 -1.79328,0.915924 -2.56,1.149201 -1.37843,0.41939 -2.34125,0.985451 -5.65525,3.324836 -2.6857,1.895865 -7.37205,7.908981 -7.92065,10.163081 -0.12821,0.526801 -0.60774,1.67782 -1.06562,2.55782 -0.81759,1.571299 -0.83252,1.71767 -0.83252,8.159999 0,6.191165 0.0397,6.6272 0.70637,7.755194 0.3885,0.657353 0.86479,1.78351 1.05841,2.502566 0.72653,2.698109 4.41503,7.392483 8.27987,10.537811 1.30055,1.058435 2.52712,1.924428 2.72571,1.924428 0.19859,0 0.88576,0.356535 1.52705,0.792301 0.64128,0.435767 1.79795,0.93393 2.57037,1.107034 0.77243,0.173104 2.04516,0.605405 2.82831,0.960672 1.23821,0.561699 2.1011,0.646854 6.6166,0.652966 4.67312,0.0063 5.39355,-0.06804 7.2,-0.743232 1.10402,-0.412643 2.71,-0.844448 3.56884,-0.959571 0.85885,-0.115123 2.06273,-0.519062 2.67529,-0.897645 0.61256,-0.378585 1.7282,-0.803129 2.4792,-0.94343 0.751,-0.140301 1.90722,-0.622746 2.56937,-1.072093 0.66216,-0.44935 1.54654,-0.817001 1.96531,-0.817001 0.41876,0 1.57094,-0.432 2.56039,-0.96 0.98945,-0.528 2.06945,-0.96 2.4,-0.96 0.33055,0 1.41055,-0.432 2.4,-0.96 0.98945,-0.528 2.18928,-0.96 2.66629,-0.96 0.47701,0 1.51805,-0.34601 2.31341,-0.768909 0.79537,-0.422899 2.45888,-0.926042 3.6967,-1.118096 1.23781,-0.192054 2.90988,-0.631802 3.7157,-0.977219 0.80583,-0.345418 2.51176,-0.706746 3.79097,-0.802951 C 86.79337,54.476613 90,54.246481 92.64,54.061415 c 6.64871,-0.466083 11.12152,-1.370019 12.96,-2.619161 2.3742,-1.613139 4.75394,-4.115171 6.01322,-6.322256 l 1.18678,-2.08 v -4.16 -4.159999 l -1.33576,-1.92 c -1.85789,-2.670494 -2.96618,-3.635312 -6.9446,-6.045634 -0.5498,-0.333099 -1.50364,-0.931548 -2.11964,-1.329887 -0.616,-0.398339 -1.58124,-0.81976 -2.14497,-0.936491 -0.56374,-0.116731 -1.38048,-0.491873 -1.81497,-0.833649 -0.4345,-0.341776 -1.48526,-0.75865 -2.33503,-0.926386 -0.84977,-0.167736 -2.25344,-0.670145 -3.11927,-1.116464 -0.86582,-0.446319 -2.10842,-0.811489 -2.76133,-0.811489 -0.6529,0 -1.96132,-0.354454 -2.9076,-0.787676 -1.0071,-0.461066 -2.8476,-0.922139 -4.43868,-1.111956 -1.49498,-0.178355 -3.58889,-0.602801 -4.65313,-0.943214 -1.06424,-0.340414 -3.26467,-0.722954 -4.88985,-0.850089 -2.62963,-0.205712 -3.02423,-0.319332 -3.58502,-1.032265 -0.81817,-1.040138 -0.79999,-2.14496 0.0493,-2.994224 0.59707,-0.597066 0.89769,-0.652047 2.48,-0.453569 0.99032,0.12422 3.16858,0.348322 4.84058,0.498005 1.672,0.149682 3.78366,0.564514 4.69258,0.921849 0.90893,0.357334 2.63693,0.743469 3.84,0.858077 1.20308,0.114608 2.97942,0.546007 3.94742,0.958665 0.968,0.412657 2.56394,0.890826 3.54654,1.062596 0.98261,0.171771 2.27861,0.593713 2.88,0.937649 0.6014,0.343937 1.6646,0.725639 2.36265,0.848227 0.69806,0.122588 1.66055,0.501552 2.13886,0.842142 0.47832,0.34059 1.46455,0.829141 2.19163,1.085669 0.72708,0.256528 1.69201,0.757498 2.14429,1.113265 0.45229,0.355767 1.00787,0.646849 1.23463,0.646849 0.22676,0 0.81935,0.33974 1.31685,0.754978 0.4975,0.415238 1.34189,0.979081 1.87642,1.252984 1.15033,0.589458 5.58813,4.631417 5.58813,5.089688 0,0.174748 0.42027,0.917265 0.93393,1.650037 0.73824,1.053151 1.03779,2.008511 1.42961,4.5595 0.46206,3.008361 0.45601,3.460032 -0.0893,6.661052 -0.36857,2.163463 -0.81923,3.751645 -1.21814,4.292813 -0.34823,0.472422 -0.90078,1.424381 -1.22789,2.115465 -1.28214,2.708743 -7.19193,7.52233 -9.81447,7.993987 -0.65246,0.117341 -1.86379,0.51304 -2.69185,0.879331 -1.31375,0.58113 -2.42647,0.69585 -8.73372,0.900423 -6.27914,0.203661 -7.44664,0.323289 -8.89224,0.911152 -0.91525,0.372189 -2.72269,0.808131 -4.01653,0.968765 -1.29384,0.16063 -2.94379,0.593737 -3.66655,0.962464 -0.72276,0.368723 -1.93932,0.766425 -2.70347,0.883785 -0.76415,0.11736 -1.96536,0.539059 -2.66936,0.937104 -0.704,0.398048 -1.784,0.823962 -2.4,0.94647 -0.616,0.122509 -1.70039,0.556173 -2.40976,0.963693 -0.70936,0.407523 -1.82661,0.841667 -2.48278,0.964765 -0.65617,0.123098 -1.53211,0.490534 -1.94655,0.816528 -0.41443,0.325994 -1.43964,0.74648 -2.27823,0.934413 -0.83859,0.187932 -2.11825,0.679814 -2.8437,1.093068 -0.72544,0.413258 -2.00344,0.837818 -2.84001,0.943472 -0.83656,0.105655 -2.1294,0.502471 -2.87298,0.881818 -2.07911,1.060672 -9.02513,1.475613 -15.44601,0.92271 z m 73.47333,-7.647132 c -1.33132,-1.331328 -0.52084,-3.553334 1.29609,-3.553334 1.60554,0 2.89084,2.540473 1.76008,3.478918 -0.90311,0.749517 -2.34594,0.784646 -3.05617,0.07442 z M 39.68,41.808997 c -4.53941,-1.303184 -7.40178,-4.309507 -7.9786,-8.379856 -0.35534,-2.507431 -0.0107,-5.870946 0.71445,-6.973464 0.88924,-1.351918 3.62295,-3.907812 5.19349,-4.855678 1.56615,-0.945207 1.65969,-0.96 6.07066,-0.96 4.41761,0 4.50173,0.01337 6.04072,0.96 2.2572,1.388399 4.65948,3.648827 4.89905,4.609771 0.11384,0.456626 0.54156,1.550229 0.95048,2.430229 0.98005,2.109052 0.94229,3.137128 -0.2253,6.13582 -0.83441,2.142989 -1.27941,2.78697 -3.08526,4.4648 -1.96675,1.827319 -2.29857,2.006813 -4.88041,2.64 -3.37657,0.828093 -4.60511,0.816662 -7.69928,-0.07162 z m 7.1616,-4.352317 c 1.55613,-0.361017 3.61759,-2.322957 4.04057,-3.845488 0.90235,-3.24807 -0.0268,-5.783832 -2.77408,-7.570494 -1.66478,-1.082685 -2.1293,-1.227431 -4.26809,-1.329949 -2.33949,-0.112137 -2.44872,-0.08309 -4.3321,1.151916 -2.66335,1.746469 -3.6679,3.265537 -3.6679,5.546522 0,1.454956 0.16905,2.008162 0.93812,3.069826 1.03494,1.428701 2.71162,2.810691 3.70188,3.051264 1.11658,0.271261 5.0724,0.225497 6.3616,-0.0736 z M 58.24,15.129779 C 56.69901,14.573444 56.23099,13.20634 57.13814,11.911201 58.13248,10.491582 61.12,11.371923 61.12,13.084549 c 0,1.244089 -1.71858,2.464534 -2.88,2.04523 z"
     id="path3939"
     inkscape:connector-curvature="0" />
</svg>
