<?xml version="1.0" encoding="UTF-8" standalone="no"?>
<!-- Created with Inkscape (http://www.inkscape.org/) -->

<svg
   xmlns:dc="http://purl.org/dc/elements/1.1/"
   xmlns:cc="http://creativecommons.org/ns#"
   xmlns:rdf="http://www.w3.org/1999/02/22-rdf-syntax-ns#"
   xmlns:svg="http://www.w3.org/2000/svg"
   xmlns="http://www.w3.org/2000/svg"
   xmlns:sodipodi="http://sodipodi.sourceforge.net/DTD/sodipodi-0.dtd"
   xmlns:inkscape="http://www.inkscape.org/namespaces/inkscape"
   version="1.1"
   id="svg3909"
   width="128"
   height="130.24001"
   viewBox="0 0 128 130.24001"
   sodipodi:docname="genrecipe-img-4.svg"
   inkscape:version="0.92.3 (unknown)">
  <path
     style="stroke-width:0.32000002"
     d="M 0,100.96001 C 0,72.252034 0.0121,71.680006 0.61732,71.680006 c 0.66727,0 1.05267,-1.389604 1.46438,-5.280001 0.1178,-1.113133 0.57723,-2.659629 1.09324,-3.68 0.48952,-0.968 1.064,-2.469808 1.2766,-3.337354 0.21261,-0.867546 0.65471,-1.953933 0.98245,-2.414195 0.32773,-0.460263 0.96938,-1.622455 1.42587,-2.582647 1.85583,-3.903543 5.68767,-9.383633 8.92687,-12.766734 L 17.76,39.558147 v -7.225354 -7.225357 l 1.00329,-1.593717 c 0.55181,-0.876545 1.23605,-2.099655 1.52054,-2.718022 1.13398,-2.464804 7.34116,-8.310423 12.31112,-11.5940115 1.95382,-1.2908596 4.25781,-0.4135789 5.53771,2.1085635 0.37114,0.731364 1.01134,1.7323 1.42266,2.224302 0.41132,0.492003 0.89252,1.431794 1.06933,2.088426 0.17681,0.656631 0.67879,1.678187 1.11551,2.270123 0.43671,0.591937 0.88957,1.740145 1.00633,2.551575 0.59683,4.147421 1.38393,4.502075 8.32415,3.750702 3.63511,-0.393551 8.05236,-0.516233 18.573913,-0.515862 13.110858,4.48e-4 13.842509,-0.03022 14.56,-0.610683 l 0.75545,-0.61117 0.16,-9.506825 0.16,-9.5068233 1.36,-1.1707326 c 0.748,-0.6439029 1.36,-1.4188059 1.36,-1.7220068 C 88.000003,0.0629859 88.402179,0 91.520003,0 c 3.187773,0 3.52,0.054847 3.52,0.5811157 0,0.4015752 0.535763,0.8031767 1.734093,1.2998572 1.408041,0.5836005 1.862768,0.9707215 2.418438,2.0588847 1.287256,2.5208242 2.304686,4.2177328 2.660806,4.4378317 0.19583,0.1210282 1.08294,0.3181392 1.97136,0.4380243 2.06932,0.2792394 2.56936,0.5428481 4.41177,2.3257684 1.75402,1.697385 2.03605,2.408531 2.46011,6.203259 0.33048,2.957205 0.77872,4.14213 1.99738,5.279988 0.98257,0.917422 2.86914,1.695273 4.11165,1.695273 2.06498,0 4.21616,1.883162 4.62192,4.046072 0.12504,0.666497 0.43545,1.614263 0.68981,2.106146 0.65313,1.263007 4.76272,5.367783 5.37408,5.367783 0.4271,0 0.50858,0.461395 0.50858,2.88 0,2.575008 -0.0619,2.88 -0.58422,2.88 -0.32132,0 -0.93086,0.368986 -1.35454,0.819971 -0.42368,0.450983 -1.27678,1.133101 -1.89578,1.515818 -1.09158,0.674899 -1.37244,0.692755 -9.32842,0.593059 l -8.20297,-0.10279 -0.51703,0.738173 c -0.46031,0.657181 -0.51704,2.604502 -0.51704,17.74779 0,13.219483 0.0891,17.08268 0.4,17.337512 0.22,0.180342 1.00592,0.489888 1.74649,0.687878 0.74057,0.197991 1.43476,0.50281 1.54265,0.677373 0.10788,0.174563 0.9107,0.679479 1.78404,1.122032 3.56728,1.80768 7.20232,5.193505 10.02656,9.33915 0.81085,1.190221 1.77922,2.549312 2.15195,3.020202 0.39949,0.504707 0.73941,1.498684 0.82807,2.421373 0.12618,1.31314 0.0288,1.705856 -0.60468,2.438537 -0.83492,0.965669 -2.47215,2.029739 -4.93721,3.208799 -0.89217,0.42673 -2.14298,1.12933 -2.77957,1.56134 -0.6366,0.432 -1.76088,0.88195 -2.4984,0.99989 -0.73753,0.11793 -1.98814,0.5937 -2.77914,1.05725 -1.20728,0.70752 -2.24119,0.93468 -6.43947,1.41484 -2.75071,0.3146 -6.225287,0.57965 -7.721287,0.58901 -3.261715,0.0204 -3.317133,0.051 -7.600461,4.19958 -4.257622,4.12366 -9.378758,8.29322 -10.185894,8.29322 -0.199968,0 -0.986563,0.49298 -1.747994,1.09553 -0.761427,0.60254 -1.857453,1.18426 -2.435613,1.29273 -0.57816,0.10846 -1.469139,0.54888 -1.979952,0.9787 -0.510816,0.42982 -1.792057,0.98289 -2.847206,1.22904 -1.055149,0.24615 -2.54945,0.81105 -3.320666,1.25533 -0.775587,0.4468 -2.188732,0.89745 -3.162214,1.00843 -4.314753,0.49188 -5.760003,0.86736 -5.760003,1.49647 0,0.58719 -0.78626,0.60377 -28.64,0.60377 H 0 Z m 56,23.38809 c 1.672,-0.42343 4.02466,-0.8731 5.22812,-0.99927 1.34775,-0.1413 2.761083,-0.53506 3.679998,-1.02527 0.820538,-0.43773 2.279674,-1.00205 3.242525,-1.25404 0.962854,-0.252 1.970854,-0.65515 2.24,-0.89589 0.269149,-0.24074 1.28136,-0.8125 2.24936,-1.27059 7.024634,-3.32426 14.676026,-10.4782 20.033488,-18.73102 0.624106,-0.961394 1.329094,-2.213151 1.566646,-2.781688 0.237549,-0.568535 0.802698,-1.579368 1.255885,-2.246296 0.453191,-0.666928 0.823981,-1.507228 0.823981,-1.86734 0,-0.360109 0.480477,-1.658682 1.067725,-2.885716 0.625737,-1.307452 1.159881,-3.025763 1.290349,-4.150972 0.122441,-1.056 0.613964,-3.000001 1.092272,-4.320002 l 0.869651,-2.4 0.16,-19.468568 0.16,-19.468571 0.76759,-0.621261 c 0.7275,-0.588816 1.252,-0.615801 10.04238,-0.516669 7.38226,0.08325 9.36131,0.01808 9.69881,-0.31943 0.56357,-0.563565 0.28074,-1.263565 -1.13355,-2.805504 C 119.09948,34.972713 116.8,31.350876 116.8,30.75177 c 0,-0.665856 -1.28155,-1.631768 -2.16499,-1.631768 -0.48675,0 -1.38675,-0.286665 -2,-0.637034 -0.61326,-0.350369 -1.80517,-1.003919 -2.64871,-1.452333 -1.36017,-0.723052 -1.66347,-1.0945 -2.68069,-3.282966 -0.831,-1.787847 -1.259,-3.301955 -1.55357,-5.496034 -0.35111,-2.615173 -0.52263,-3.128192 -1.25715,-3.76 -0.54814,-0.471489 -1.27091,-0.734349 -2.03273,-0.739268 -3.453069,-0.0223 -5.561642,-1.51604 -6.151607,-4.3578783 C 96.034723,8.0658153 95.710701,7.4881267 94.837625,6.7684658 93.20023,5.4187847 92.305523,5.0140957 91.43952,5.2314494 90.025837,5.5862609 89.920003,6.4123413 89.920003,17.091903 c 0,9.564042 -0.02947,10.059253 -0.645174,10.841997 l -0.645175,0.820207 -18.474825,0.151705 C 49.33825,29.076747 45.69689,29.294734 43.29077,30.514009 c -0.88166,0.446771 -2.3441,0.910618 -3.24987,1.030773 -0.93982,0.124671 -2.25422,0.603643 -3.06155,1.115637 -0.77809,0.493446 -1.89274,1.032886 -2.47702,1.198758 -0.96813,0.274842 -2.01169,0.875686 -6.49716,3.740826 -2.18829,1.397795 -5.71977,4.409488 -8.61861,7.350074 -2.42973,2.464727 -3.89397,4.380922 -5.63032,7.368225 -0.44207,0.760556 -1.05028,1.655225 -1.35158,1.988153 -0.30129,0.332928 -0.74959,1.177248 -0.99622,1.876266 -0.24663,0.699018 -0.80948,1.803005 -1.25078,2.4533 -0.44131,0.650297 -0.90204,1.727222 -1.02385,2.393171 -0.12181,0.665946 -0.58288,1.833146 -1.02459,2.593773 -0.53934,0.928746 -0.93932,2.34759 -1.21783,4.32 -0.22809,1.615373 -0.75597,4.017041 -1.17305,5.337041 L 4.96,75.680007 v 23.893969 23.893964 l 0.75987,0.8091 c 0.48354,0.51486 1.18175,0.84434 1.92,0.90603 0.63807,0.0533 11.09613,0.0605 23.24013,0.0159 l 22.08,-0.081 z m 1.35634,-12.22509 c -0.85292,-0.37774 -1.17731,-1.70112 -1.36365,-5.563 -0.17578,-3.6428 -0.28408,-4.18532 -1.21285,-6.07524 C 54.21893,99.343394 53.76,98.042537 53.76,97.593983 c 0,-0.448557 -0.504,-1.597843 -1.12,-2.553975 -0.616,-0.956131 -1.12,-1.867907 -1.12,-2.026173 0,-0.719238 -3.14879,-4.905453 -5.78503,-7.691002 -2.92349,-3.089075 -5.76291,-5.317581 -8.62002,-6.765386 -0.85231,-0.431898 -1.63917,-0.930115 -1.74859,-1.107152 -0.10941,-0.177034 -1.0196,-0.558202 -2.02264,-0.847037 -1.00304,-0.288838 -2.54258,-0.886819 -3.42118,-1.328851 -1.29054,-0.649274 -2.32205,-0.854042 -5.36866,-1.065735 -4.15719,-0.288864 -5.30349,-0.667696 -5.92139,-1.956902 -0.34365,-0.716999 -0.33475,-1.050512 0.0528,-1.978029 0.37296,-0.892618 0.69487,-1.158531 1.61043,-1.330292 0.62936,-0.118067 1.61796,-0.125808 2.19689,-0.01722 0.57894,0.108609 2.46079,0.330698 4.18191,0.493533 2.32235,0.219715 3.53242,0.506845 4.69255,1.11346 0.85979,0.449571 2.21169,0.962716 3.00421,1.140326 0.79253,0.17761 2.1234,0.755719 2.9575,1.284682 0.83409,0.528966 1.68454,0.961757 1.88988,0.961757 0.20534,0 0.93315,0.44632 1.61735,0.991824 0.6842,0.545504 1.76013,1.256253 2.39096,1.579443 2.37151,1.214995 9.4421,8.520932 10.86904,11.230827 0.21949,0.416848 0.72531,1.150249 1.12404,1.629779 0.39873,0.479526 0.89916,1.415526 1.11207,2.08 0.2129,0.66447 0.73181,1.669843 1.15313,2.234167 0.42132,0.56432 0.90299,1.748214 1.07038,2.630877 0.16739,0.882662 0.68865,2.3632 1.15833,3.290086 0.67754,1.33705 0.90765,2.38027 1.11372,5.04912 0.37154,4.81167 0.34731,6.20638 -0.1189,6.84395 -0.41361,0.56564 -2.58617,0.9823 -3.35244,0.64293 z m 8.37326,-9.43575 c -0.507597,-0.56018 -0.640621,-1.35683 -0.795018,-4.761066 -0.155693,-3.432893 -0.298889,-4.280634 -0.8932,-5.287917 -0.38928,-0.659779 -0.906349,-2.050784 -1.149043,-3.091124 C 62.64965,88.506814 62.04097,86.977112 61.53974,86.147819 61.0385,85.318523 60.41501,84.261911 60.1542,83.799796 58.19991,80.337057 57.11159,78.88826 54.42333,76.170701 c -2.5799,-2.608 -7.45262,-6.390272 -8.2695,-6.418887 -0.1286,-0.0045 -1.01915,-0.508502 -1.979,-1.12 -0.95984,-0.611494 -2.04199,-1.111808 -2.40476,-1.111808 -0.36278,0 -1.59345,-0.459398 -2.73483,-1.020883 C 37.03536,65.515312 35.04583,65.203881 29.34546,64.982336 28.34429,64.943426 27.2,63.50094 27.2,62.277775 c 0,-1.696451 1.25527,-2.553987 3.35769,-2.293811 0.88127,0.109056 2.99196,0.314685 4.69042,0.456947 2.36962,0.198483 3.46338,0.454893 4.70109,1.102074 0.88715,0.463878 2.19408,0.93633 2.90428,1.049898 0.71021,0.113564 2.04586,0.692627 2.96811,1.286803 0.92226,0.594176 1.85066,1.08032 2.06311,1.08032 0.21246,0 1.02727,0.48928 1.81071,1.087286 0.78343,0.59801 1.74752,1.260205 2.14241,1.471546 1.4811,0.792659 4.38671,3.196224 6.24218,5.163613 1.93802,2.054919 4.960003,5.928231 4.960003,6.357294 0,0.12774 0.424077,0.765891 0.942394,1.418105 0.518316,0.652218 1.116163,1.71602 1.328547,2.364004 0.212384,0.647984 0.725293,1.625037 1.139795,2.171229 0.414506,0.546192 0.909542,1.836403 1.100083,2.867136 0.190541,1.03073 0.714669,2.599847 1.16473,3.486922 0.765155,1.508134 1.251187,4.955683 1.345984,9.547409 0.04254,2.06045 -2.962483,3.30403 -4.331936,1.79271 z M 15.36,101.38717 c -1.35219,-0.38045 -3.42891,-2.282093 -4.03724,-3.696883 -0.56719,-1.319117 -0.57436,-5.556474 -0.0117,-6.900557 0.90768,-2.168157 4.49321,-4.389723 7.08487,-4.389723 1.13406,0 4.50737,1.265095 5.27147,1.976961 0.96663,0.900553 2.57258,4.551587 2.57258,5.848608 0,1.310944 -1.60857,4.900521 -2.61866,5.843614 -1.61143,1.50455 -5.43191,2.11406 -8.26134,1.31798 z m 4.69224,-5.219696 c 1.45625,-1.02 1.17546,-3.284381 -0.51573,-4.158928 -1.2072,-0.624269 -2.37402,-0.366903 -3.22157,0.710579 -0.81375,1.034522 -0.81155,2.464271 0.005,3.280883 0.77045,0.770445 2.74488,0.859037 3.73224,0.167466 z M 75.348893,94.415522 C 74.245113,93.968114 74.014496,93.379429 73.800409,90.462786 73.658992,88.536158 73.3356,87.032526 72.777421,85.706353 72.328512,84.63979 71.876531,83.052078 71.773021,82.178107 71.668057,81.291854 71.242384,80.084449 70.810553,79.44811 70.384704,78.820586 69.752681,77.549169 69.406057,76.622736 69.059437,75.696304 68.555779,74.755684 68.286819,74.532468 68.017862,74.309252 67.569341,73.684131 67.290105,73.143312 65.550704,69.774454 56.78997,61.779999 53.70752,60.748761 53.12039,60.552332 52.18674,60.05542 51.63276,59.644508 51.07877,59.233596 49.92677,58.747186 49.07276,58.563596 48.21874,58.380005 46.74665,57.846143 45.80144,57.377237 44.332,56.648265 43.56661,56.504521 40.52144,56.385612 36.31736,56.221449 35.84,55.964978 35.84,53.870408 c 0,-0.958547 0.19659,-1.586985 0.63292,-2.023315 0.58087,-0.58087 0.92952,-0.617232 4.24,-0.442221 2.81165,0.148643 4.03048,0.366496 5.52708,0.987898 1.056,0.438461 2.712,0.98272 3.68,1.209462 2.613,0.612064 8.46777,3.71921 11.0883,5.884602 0.55456,0.458244 1.941284,1.606448 3.081604,2.551569 1.14032,0.945116 2.846585,2.649606 3.791702,3.787757 0.94512,1.13815 2.247463,2.700998 2.894099,3.472995 0.646637,0.771997 1.279357,1.731504 1.406045,2.13224 0.126688,0.400736 0.578115,1.185341 1.003178,1.743568 0.425059,0.558228 0.917881,1.540276 1.095161,2.182327 0.177277,0.642051 0.724224,1.801095 1.215434,2.575655 0.513616,0.809888 0.972269,2.076656 1.079405,2.981245 0.102461,0.865126 0.579529,2.489353 1.06015,3.609389 0.675431,1.574019 0.906368,2.705872 1.017043,4.984624 0.182906,3.765994 0.01459,4.416218 -1.257942,4.859828 -1.153946,0.402268 -1.169149,0.40262 -2.045286,0.04749 z m 8.73046,-9.027662 c -0.968697,-0.353776 -1.06934,-0.643507 -1.371334,-3.947853 -0.112598,-1.232 -0.557446,-3.129002 -0.98855,-4.215558 -0.431108,-1.086557 -0.871764,-2.71802 -0.979239,-3.625473 -0.113555,-0.958797 -0.527337,-2.139043 -0.987827,-2.817613 -0.435834,-0.642233 -0.989811,-1.727161 -1.231066,-2.41095 -0.241254,-0.683789 -0.835251,-1.8861 -1.31999,-2.671802 -1.407814,-2.281901 -6.548666,-8.122023 -8.600022,-9.769822 -3.297392,-2.648714 -5.369568,-4.088784 -5.883505,-4.088784 -0.27467,0 -1.25151,-0.48456 -2.17076,-1.0768 -0.9452,-0.608957 -2.29521,-1.162307 -3.10724,-1.273607 C 56.6501,49.381355 55.24707,48.907589 54.32198,48.436789 52.92476,47.725707 52.09825,47.556366 49.44,47.436545 45.34431,47.251934 44.8,46.942648 44.8,44.800004 c 0,-2.41672 0.52934,-2.644054 5.32467,-2.286797 2.96022,0.220541 4.14091,0.449514 5.24749,1.017665 0.78532,0.4032 2.34295,0.926656 3.46142,1.163232 1.11847,0.236572 2.42085,0.7059 2.89419,1.04295 0.47335,0.33705 1.646236,0.988746 2.606428,1.448211 0.960192,0.459466 2.408384,1.226746 3.218205,1.705066 2.099885,1.240298 7.511488,6.060461 9.480448,8.444324 3.386973,4.100672 3.89319,4.774442 4.111661,5.472554 0.122685,0.392038 0.559574,1.115344 0.970861,1.607347 0.411289,0.492004 0.906345,1.483348 1.100124,2.202993 0.19378,0.719644 0.697194,1.829571 1.118698,2.466509 0.422374,0.638249 0.973216,2.234864 1.22719,3.557005 0.253453,1.31942 0.776052,3.190944 1.161332,4.158944 0.720246,1.809584 1.201376,6.023904 0.848316,7.430605 -0.185897,0.740676 -1.396387,1.558583 -2.226086,1.504132 -0.211718,-0.01389 -0.781238,-0.169991 -1.265594,-0.346884 z m 20.897437,17.68962 c 2.03584,-0.19074 3.1013,-0.46814 4.16,-1.0831 0.78277,-0.45469 1.96808,-0.92636 2.63402,-1.04818 0.66595,-0.12181 1.74595,-0.5859 2.4,-1.031311 0.65406,-0.445408 1.652,-1.004234 2.21765,-1.241831 1.60201,-0.672909 1.77966,-1.332963 0.88088,-3.272877 -0.93828,-2.025194 -5.46774,-6.678628 -7.51958,-7.725399 -0.77557,-0.395664 -1.77454,-0.981558 -2.21994,-1.30199 -0.4454,-0.320429 -1.19857,-0.675181 -1.67372,-0.78834 -1.25612,-0.299152 -2.49478,1.009396 -2.49996,2.641012 -0.002,0.721334 -0.34262,1.799306 -0.8381,2.654544 -0.45883,0.792 -1.03917,2.301178 -1.28963,3.353731 -0.25046,1.052551 -0.73245,2.208653 -1.07108,2.569111 -0.338629,0.360461 -0.833481,1.27265 -1.09966,2.027088 -0.266182,0.754439 -0.775049,1.741762 -1.130819,2.194042 -0.653078,0.83026 -0.848832,2.02166 -0.406848,2.47616 0.132,0.13574 1.248,0.15386 2.479997,0.0403 1.232,-0.11358 3.47156,-0.3219 4.97679,-0.46293 z M 25.80384,33.127263 c 0.85589,-0.612003 2.14336,-1.399773 2.86105,-1.750596 0.71769,-0.350822 1.6842,-0.93622 2.1478,-1.300884 0.46359,-0.364664 1.54859,-0.872593 2.4111,-1.128731 0.8625,-0.256137 1.912,-0.72772 2.3322,-1.047962 0.42021,-0.320241 1.22724,-0.768036 1.7934,-0.9951 1.58447,-0.635461 1.76362,-1.016587 1.21234,-2.579091 -0.26495,-0.750949 -0.48261,-1.743258 -0.4837,-2.20513 -9.6e-4,-0.461872 -0.24147,-1.271767 -0.53418,-1.799767 -0.29272,-0.528 -0.97601,-1.824001 -1.51843,-2.880001 -0.86317,-1.680453 -1.11473,-1.932421 -2.01624,-2.01956 -0.56651,-0.05476 -1.53737,0.141196 -2.15747,0.435453 -1.56218,0.741302 -6.10446,5.329832 -7.06254,7.134449 -0.43498,0.819312 -1.10158,1.878927 -1.48133,2.3547 -0.60916,0.763185 -0.69384,1.28404 -0.71915,4.423526 -0.0256,3.171578 0.0388,3.608115 0.59248,4.01496 0.83746,0.61543 0.84784,0.612832 2.62267,-0.656266 z"
     id="path4002"
     inkscape:connector-curvature="0" />
</svg>
