<?xml version="1.0" encoding="UTF-8" standalone="no"?>
<!-- Created with Inkscape (http://www.inkscape.org/) -->

<svg
   xmlns:dc="http://purl.org/dc/elements/1.1/"
   xmlns:cc="http://creativecommons.org/ns#"
   xmlns:rdf="http://www.w3.org/1999/02/22-rdf-syntax-ns#"
   xmlns:svg="http://www.w3.org/2000/svg"
   xmlns="http://www.w3.org/2000/svg"
   xmlns:sodipodi="http://sodipodi.sourceforge.net/DTD/sodipodi-0.dtd"
   xmlns:inkscape="http://www.inkscape.org/namespaces/inkscape"
   version="1.1"
   id="svg3929"
   width="128"
   height="114.24"
   viewBox="0 0 128 114.24"
   sodipodi:docname="genrecipe-img-6.svg"
   inkscape:version="0.92.3 (unknown)">
  <path
     style="stroke-width:0.31999999"
     d="m 52.48,113.79687 c 0,-0.56651 -1.44052,-0.72826 -10.4,-1.16772 -4.58504,-0.2249 -8.60225,-0.61789 -11.52,-1.12696 -2.464,-0.42991 -5.78449,-0.92406 -7.37886,-1.09812 -1.59437,-0.17405 -3.68237,-0.58556 -4.64,-0.91446 -0.95763,-0.32889 -2.73439,-0.77052 -3.94837,-0.98139 -1.21398,-0.21087 -2.72679,-0.64846 -3.3618,-0.97242 C 10.59596,107.21184 9.42921,106.77383 8.6382,106.56245 6.73111,106.05281 4.7854,104.84752 2.56444,102.8 1.56217,101.876 0.57516,101.12 0.37107,101.12 0.12263,101.12 0,100.32686 0,98.72 c 0,-1.90515 0.0976,-2.4 0.47341,-2.4 0.26037,0 1.06291,-0.63953 1.78341,-1.421184 0.7205,-0.781651 2.19947,-1.871424 3.28659,-2.421718 C 9.09886,90.677354 8.80244,92.858771 8.73904,68.96 8.68694,49.315389 8.71694,48.08512 9.27866,46.811939 c 0.43579,-0.987693 0.83626,-1.406262 1.49806,-1.565779 0.49681,-0.119744 1.55369,-0.542522 2.34864,-0.939504 0.79495,-0.396986 2.08939,-0.89521 2.87655,-1.107168 C 16.78906,42.98753 18.0815,42.468934 18.874,42.047053 19.6665,41.625174 20.61861,41.28 20.98979,41.28 c 0.37119,0 1.31875,-0.342342 2.10569,-0.760762 0.78694,-0.418422 2.2456,-0.997635 3.24147,-1.287142 0.99587,-0.289504 2.28145,-0.797206 2.85686,-1.128227 0.5754,-0.331018 1.53522,-0.703866 2.13292,-0.828551 0.59771,-0.124684 1.96571,-0.642524 3.04001,-1.150755 1.07429,-0.508233 2.19233,-0.924173 2.48453,-0.92431 0.2922,-1.38e-4 1.4442,-0.432138 2.56,-0.96 1.1158,-0.527863 2.28432,-0.959863 2.59672,-0.96 0.88222,-3.2e-4 4.96999,-2.16644 5.31892,-2.818417 0.20406,-0.381288 0.19794,-1.073313 -0.0177,-2.002255 -0.18124,-0.780769 -0.25947,-2.507925 -0.17385,-3.838123 0.12886,-2.001917 0.37604,-2.856341 1.43493,-4.96 1.22418,-2.432026 2.01131,-3.320617 6.06969,-6.852071 0.396,-0.344585 0.72,-0.836615 0.72,-1.0934 0,-1.212703 -4.61665,-5.1223781 -6.87406,-5.8214001 C 47.77866,5.6755779 46.75352,5.2678989 46.20784,4.988633 45.66217,4.7093667 44.51017,4.3892861 43.64784,4.2773427 41.2212,3.9623232 40.55011,3.0020945 41.16169,0.72 41.33934,0.0570896 41.53902,0 43.68,0 c 1.96777,0 2.34846,0.088335 2.47557,0.57444 0.10046,0.3841173 0.77947,0.7493868 2.04945,1.1024714 3.33771,0.9279672 7.19564,3.5933939 10.15391,7.0152915 1.41385,1.6354311 2.12672,2.2086391 2.88,2.3157561 0.55059,0.07829 2.14401,0.299806 3.54093,0.49225 2.81467,0.387757 4.61555,1.317416 7.28643,3.761439 0.82846,0.758094 1.68064,1.378352 1.89373,1.378352 0.21309,0 1.33526,-1.003118 2.49371,-2.229151 3.97033,-4.201965 6.87818,-5.4499991 12.69954,-5.4505871 2.30937,-2.33e-4 2.68597,0.08565 3.44,0.784458 0.83082,0.7699721 0.96364,1.2699121 0.85975,3.2358721 -0.0289,0.54658 0.20462,1.2851 0.52758,1.668586 0.55157,0.654942 3.38069,1.861744 6.4994,2.772406 1.4592,0.426087 4.26192,1.976722 6.51641,3.605279 1.69096,1.221477 6.83187,6.681182 7.60517,8.076757 0.34632,0.625009 0.83081,1.49638 1.07665,1.93638 1.49803,2.681178 2.44204,5.463872 2.91563,8.594531 0.43276,2.860749 0.52505,7.14448 0.57701,26.780899 0.0709,26.785178 -0.23377,24.331693 3.22913,26.007223 1.08244,0.523744 2.51614,1.576435 3.28659,2.413171 0.75162,0.816296 1.57962,1.484176 1.84,1.484176 0.3758,0 0.47341,0.49485 0.47341,2.4 0,1.60686 -0.12263,2.4 -0.37107,2.4 -0.20409,0 -1.1911,0.756 -2.19337,1.68 -2.22096,2.04752 -4.16667,3.25281 -6.07376,3.76245 -0.79101,0.21138 -1.95776,0.64939 -2.59277,0.97335 -0.63501,0.32396 -2.14782,0.76155 -3.3618,0.97242 -1.21398,0.21087 -2.99074,0.6525 -3.94838,0.98139 -0.95762,0.3289 -3.04562,0.74041 -4.64,0.91446 -1.59436,0.17406 -4.91485,0.66821 -7.37885,1.09812 -2.90641,0.50709 -6.95278,0.90401 -11.52,1.13001 -9.22071,0.45628 -10.72,0.61979 -10.72,1.16913 0,0.36332 -1.95129,0.43867 -11.36,0.43867 -9.46434,0 -11.36,-0.0739 -11.36,-0.44313 z m 31.68,-4.80153 c 2.2,-0.27541 6.12755,-0.64645 8.72789,-0.82454 2.77294,-0.1899 6.17056,-0.65603 8.21688,-1.12729 1.91895,-0.44193 4.0394,-0.81181 4.71211,-0.82196 0.67272,-0.0101 2.23112,-0.30669 3.46312,-0.65899 1.232,-0.3523 3.42342,-0.90044 4.86982,-1.21808 1.4464,-0.31764 2.9584,-0.79126 3.36,-1.05249 0.4016,-0.26122 1.27223,-0.65263 1.93475,-0.86979 1.68147,-0.55117 4.39543,-2.75809 4.39543,-3.57426 0,-0.83637 -1.57978,-2.43036 -2.68315,-2.70729 -1.12313,-0.28188 -1.73014,0.27103 -2.15652,1.96434 -0.19051,0.75658 -0.63464,1.63646 -0.98695,1.9553 C 117.40041,100.61502 115.0734,100.64 64,100.64 12.9266,100.64 10.59959,100.615 9.98662,100.06029 9.63431,99.74145 9.18627,98.84603 8.99098,98.07045 8.55162,96.32559 7.71604,95.77488 6.36012,96.33652 5.25507,96.79425 4.16,98.07799 4.16,98.91572 c 0,0.69817 2.89188,3.07539 4.1108,3.37922 0.46706,0.11642 1.46796,0.53987 2.22422,0.94101 0.75626,0.40114 2.05226,0.82005 2.88,0.93093 0.82774,0.11087 2.54419,0.54859 3.81434,0.9727 1.27015,0.42412 3.50215,0.90868 4.96,1.0768 1.45785,0.16813 3.87231,0.59959 5.36546,0.95881 1.49314,0.35921 4.01314,0.73553 5.6,0.83627 1.58685,0.10074 5.76518,0.46226 9.28518,0.80337 3.52,0.34111 7.048,0.67579 7.84,0.74372 0.792,0.0679 7.848,0.0817 15.68,0.0305 10.52147,-0.0687 15.28453,-0.22375 18.24,-0.59374 z m 30.84418,-13.09043 c 0.73024,-0.730235 0.73411,-0.779316 0.58698,-7.439998 -0.083,-3.759094 -0.28902,-6.880653 -0.46882,-7.104912 -0.51421,-0.64135 -1.59812,-0.466058 -2.96806,0.48 -1.07528,0.742573 -1.59911,0.878634 -3.35428,0.871245 -1.80056,-0.0076 -2.36348,-0.168746 -4.19005,-1.199607 -1.16052,-0.654966 -2.3816,-1.490915 -2.7135,-1.85766 C 101.14893,78.827981 99.41132,78.08 98.24,78.08 c -1.12715,0 -2.8668,0.726774 -4.04137,1.688365 -0.50525,0.413632 -1.71063,1.242899 -2.67863,1.842816 -1.55965,0.966592 -2.01499,1.091504 -4,1.097296 -2.02935,0.0059 -2.43396,-0.108576 -4.30254,-1.217575 -1.1344,-0.673264 -2.37278,-1.522707 -2.75196,-1.887654 -0.37917,-0.364944 -1.35903,-0.926566 -2.17746,-1.248048 -1.44095,-0.566013 -1.53513,-0.566013 -2.97609,0 -0.81842,0.321482 -1.79828,0.883104 -2.17745,1.248048 -0.37918,0.364947 -1.61756,1.21439 -2.75196,1.887654 -1.86858,1.108999 -2.27319,1.223498 -4.30254,1.217575 -1.98817,-0.0058 -2.43787,-0.129658 -4,-1.101661 -0.968,-0.60232 -2.264,-1.485824 -2.88,-1.963344 -0.616,-0.47752 -1.7666,-1.081642 -2.55688,-1.342493 -1.2788,-0.422099 -1.57804,-0.419933 -2.72,0.01968 -0.70572,0.271667 -1.71512,0.883459 -2.24312,1.35953 -1.79192,1.615689 -4.5476,2.932489 -6.49425,3.103264 -1.59913,0.140288 -2.05871,0.03678 -3.70258,-0.833917 -1.03226,-0.546749 -2.40026,-1.405331 -3.04,-1.907962 -3.16307,-2.485152 -5.74437,-2.585904 -8.22701,-0.321116 -1.41264,1.288684 -4.40049,2.831347 -5.85835,3.024739 -2.42443,0.321613 -3.75923,-0.248739 -8.32513,-3.55729 -1.1887,-0.861353 -2.63493,-1.028141 -3.18352,-0.367136 -0.22525,0.271418 -0.38538,3.252887 -0.45115,8.4 -0.10098,7.904211 -0.0952,7.98601 0.61548,8.699239 L 13.73091,96.64 H 64 114.26909 Z M 26.44315,91.816774 C 25.82833,91.333149 25.6,90.85959 25.6,90.068032 25.6,88.839427 26.25257,88.32 27.79611,88.32 c 1.93479,0 2.61245,1.940528 1.17844,3.374544 -0.95831,0.958307 -1.43899,0.981517 -2.5314,0.12223 z m 32.24475,0.09833 c -0.65208,-0.435411 -1.14376,-1.728983 -0.95024,-2.500032 0.44503,-1.773149 3.45317,-1.182387 3.63962,0.714774 0.15223,1.549002 -1.45016,2.612701 -2.68938,1.785258 z m 33.95768,-0.275239 c -1.33823,-1.338227 0.25289,-3.685788 2.17172,-3.204192 1.38135,0.346698 1.44219,2.579751 0.0948,3.479431 -0.60431,0.403504 -1.72372,0.267565 -2.26652,-0.275239 z M 31.04,87.777926 c -1.29173,-0.461651 -1.68173,-2.195174 -0.6948,-3.088329 0.73029,-0.660909 2.40445,-0.688631 2.93562,-0.04861 1.2513,1.507731 -0.38602,3.79983 -2.24082,3.136939 z m 23.4374,-0.10886 C 52.49319,86.871741 53.03964,84.16 55.18452,84.16 c 0.59937,0 1.31605,0.226285 1.59262,0.502858 0.74639,0.74639 0.63624,2.24743 -0.20834,2.838998 -0.79972,0.560144 -1.06148,0.581072 -2.0914,0.16721 z m 42.5538,-0.16721 C 96.18662,86.910288 96.07647,85.409248 96.82286,84.662858 97.09943,84.386285 97.81611,84.16 98.41548,84.16 c 2.20998,0 2.68172,2.737853 0.60762,3.526426 -1.07618,0.409161 -1.1546,0.401894 -1.9919,-0.18457 z M 25.37106,78.426211 c 0.425,-0.161584 1.64853,-1.022649 2.71897,-1.913478 2.621,-2.18121 5.01215,-2.715879 8.65352,-1.934944 1.15362,0.247408 2.15461,0.81583 3.74107,2.124416 1.69392,1.397225 2.46583,1.820419 3.54165,1.94168 1.99915,0.225334 2.68717,-0.03956 5.1908,-1.998525 2.61793,-2.048387 4.47293,-2.604557 7.53248,-2.25841 2.29841,0.260036 2.62411,0.414324 5.32639,2.523152 1.81398,1.415623 2.29852,1.63609 3.84,1.7472 1.73827,0.1253 1.80104,0.0988 4.29291,-1.812524 2.85977,-2.193508 4.84354,-2.823072 7.80049,-2.47554 2.18413,0.256701 3.25148,0.766173 5.83066,2.783124 2.01496,1.575728 2.13516,1.622697 3.84406,1.502185 1.54366,-0.108857 2.02345,-0.326819 3.84,-1.744445 2.70228,-2.108828 3.02797,-2.263116 5.32638,-2.523152 3.03383,-0.343238 4.83907,0.19881 7.49411,2.250202 1.25952,0.973155 2.64182,1.857667 3.07179,1.965581 1.47519,0.370249 3.55709,-0.08526 4.76374,-1.042272 3.29704,-2.614931 4.03193,-3.943648 3.34028,-6.039354 -0.43618,-1.321661 -0.57532,-1.337075 -3.88417,-0.430272 -2.28371,0.625859 -2.72697,0.653994 -4.71271,0.299123 -1.75905,-0.314358 -2.5643,-0.671376 -4.07769,-1.807888 -4.18762,-3.144784 -5.34257,-3.145872 -9.51957,-0.009 -2.33987,1.757213 -4.84567,2.346493 -7.71921,1.81529 -1.89888,-0.351027 -2.22766,-0.516566 -5.45853,-2.748378 -1.51483,-1.046409 -2.1259,-1.28 -3.34848,-1.28 -1.22258,0 -1.83365,0.233591 -3.34848,1.28 -3.23087,2.231812 -3.55965,2.397351 -5.45853,2.748378 -3.03024,0.560173 -5.34425,-0.04009 -8.20088,-2.127354 -3.73364,-2.728073 -5.03936,-2.681747 -9.03736,0.320644 -3.60127,2.704451 -8.31665,2.69831 -11.93027,-0.01555 -3.99102,-2.997277 -4.82332,-3.042109 -8.64528,-0.46568 -3.38759,2.283606 -5.77584,2.909673 -8.74447,2.29231 -1.78721,-0.37167 -2.08154,-0.524384 -5.15146,-2.672762 -2.79018,-1.95262 -3.84416,-1.457436 -3.92349,1.843348 -0.0647,2.692006 0.71473,3.59928 3.57916,4.16623 0.58241,0.115277 1.91309,0.920432 2.95707,1.789235 1.04397,0.868803 2.22345,1.710362 2.62106,1.870131 0.95706,0.384567 2.89132,0.403271 3.85399,0.03727 z M 27.52,66.075568 C 28.61186,65.04063 32.66688,63.36 34.0721,63.36 c 1.37253,0 4.6894,1.340992 6.2479,2.525987 1.5323,1.165075 3.35064,1.954013 4.5036,1.954013 1.04617,0 3.27618,-1.005117 4.2964,-1.936486 C 50.10926,65.000413 54.23178,63.36 55.5121,63.36 c 1.41414,0 4.84787,1.396512 5.9279,2.410896 1.08956,1.023334 3.45402,2.053539 4.73275,2.062077 1.19115,0.008 3.3542,-0.981475 4.54725,-2.08001 C 71.79839,64.760003 75.35549,63.36 76.8,63.36 c 1.44451,0 5.00161,1.400003 6.08,2.392963 1.19305,1.098535 3.3561,2.087962 4.54725,2.08001 1.27873,-0.0085 3.64319,-1.038743 4.73275,-2.062077 C 93.24003,64.756512 96.67376,63.36 98.0879,63.36 c 1.35735,0 5.41367,1.654624 6.5521,2.672691 1.08795,0.972912 3.01845,1.807309 4.18149,1.807309 1.21904,0 3.58583,-1.204346 5.33851,-2.716502 1.25525,-1.082999 1.36,-1.294109 1.36,-2.741056 0,-1.710717 -0.47406,-2.241924 -2.4,-2.689303 -1.19534,-0.27767 -2.08,-1.049776 -2.08,-1.815357 0,-0.667798 0.91983,-1.321673 2.6144,-1.858486 1.69509,-0.536979 1.96452,-1.022547 1.92468,-3.468774 C 115.53288,49.71511 115.04875,49.28 111.93998,49.28 h -2.22911 l -3.48225,3.356685 c -4.61986,4.453273 -4.95098,4.64063 -8.20407,4.642118 -3.05671,0.0013 -2.91577,0.08688 -7.86967,-4.772998 L 87.02977,49.44 82.39481,49.33639 77.75986,49.232781 74.25311,52.613075 c -4.64509,4.477597 -4.97406,4.66424 -8.22378,4.665728 -2.60755,0.0013 -2.6127,-3.2e-4 -4.32,-1.393741 -0.94013,-0.767216 -2.8375,-2.495526 -4.21637,-3.840691 -1.37887,-1.345161 -2.84067,-2.529488 -3.24844,-2.63183 -0.40777,-0.102343 -2.53693,-0.138035 -4.73146,-0.07931 L 45.523,49.44 42.27057,52.562694 c -4.78193,4.591175 -5.17526,4.809101 -8.43014,4.670708 -2.47051,-0.10504 -2.77231,-0.19482 -4.09378,-1.21778 C 28.96199,55.408214 27.528,54.113258 26.56,53.137939 25.592,52.162621 24.24638,50.89559 23.56972,50.322317 L 22.33945,49.28 h -4.25428 c -5.9372,0 -5.59254,-0.425731 -5.62708,6.950742 -0.015,3.206906 0.0763,5.998311 0.20284,6.203124 0.12658,0.204809 1.56666,0.996937 3.20017,1.760284 1.63352,0.763344 3.0628,1.537997 3.17618,1.72145 0.24738,0.400262 2.56304,1.611117 3.68272,1.925683 0.99691,0.280077 3.68485,-0.708704 4.8,-1.765715 z M 43.9112,61.581856 C 42.45889,60.564614 43.28114,58.24 45.09326,58.24 c 1.85801,0 2.56284,2.028925 1.10358,3.176774 -1.00988,0.794375 -1.35193,0.819079 -2.28564,0.165082 z m 40.33837,-2.068285 c -0.39073,-0.157225 -0.80563,-0.6652 -0.922,-1.128832 -0.39841,-1.587417 1.91575,-2.837481 3.23144,-1.745558 0.73006,0.605897 0.60105,2.120432 -0.23021,2.702675 -0.79799,0.558934 -1.0626,0.580787 -2.07923,0.171715 z M 47.696,57.296659 c -0.69494,-0.439638 -0.59851,-2.553293 0.14116,-3.094153 1.92872,-1.410314 4.53106,1.223561 2.85998,2.894636 C 50.1467,57.647584 48.431,57.761645 47.696,57.296659 Z M 36.09589,52.98391 c 0.47526,-0.250848 2.37506,-1.995702 4.22178,-3.877452 1.84672,-1.881748 3.6921,-3.548509 4.10084,-3.703911 1.00702,-0.382867 10.37539,-0.360272 11.39527,0.02749 0.44849,0.170515 2.51446,1.959891 4.59104,3.976387 5.53416,5.374039 5.896,5.373988 11.4434,-0.0016 2.10748,-2.042201 4.16515,-3.841737 4.57261,-3.998966 0.9726,-0.375312 10.36312,-0.370336 11.31834,0.006 0.40746,0.160531 2.42977,1.948416 4.49404,3.973085 5.56884,5.462022 6.21351,5.464845 11.74357,0.05139 2.04248,-1.999415 4.11664,-3.788535 4.60925,-3.975821 0.4926,-0.187287 1.99092,-0.340522 3.32961,-0.340522 3.73002,0 4.21473,-0.785072 2.99213,-4.846291 C 114.57104,39.155168 114.19856,37.736 114.08004,37.12 113.5677,34.457133 109.99496,28.703887 107.35581,26.29185 105.70714,24.785056 101.44908,21.76 100.9768,21.76 c -0.11942,0 -1.13737,-0.443825 -2.26211,-0.986278 -2.13514,-1.029757 -3.35352,-1.041432 -3.35603,-0.03216 -6.4e-4,0.29614 1.12754,1.619575 2.50729,2.940968 2.88575,2.763723 3.37473,3.519517 3.09653,4.786165 -0.30993,1.411111 -5.92674,6.651338 -8.52279,7.951377 -1.9071,0.955027 -2.39447,1.060844 -4.91836,1.067878 -2.6108,0.0073 -2.95669,-0.07252 -5.08141,-1.172208 -1.25396,-0.649008 -3.01607,-1.897034 -3.91581,-2.773389 -2.17122,-2.114781 -2.74235,-2.032168 -4.82303,0.697645 -0.87197,1.144 -2.48602,2.756086 -3.5868,3.582413 -1.69177,1.269977 -2.4736,1.611526 -5.05364,2.207718 l -3.05224,0.705309 -3.14964,-0.677792 c -3.25374,-0.700195 -4.7658,-1.505344 -7.73968,-4.121274 -0.66051,-0.581008 -1.45251,-1.055273 -1.76,-1.053929 -0.87306,0.0038 -4.51869,1.177481 -5.35056,1.722547 -0.41201,0.269958 -1.44648,0.65815 -2.29881,0.86265 -0.85234,0.204498 -2.12571,0.692696 -2.82971,1.084885 -0.704,0.392189 -2,0.889174 -2.88,1.104413 -0.88,0.215238 -2.032,0.652944 -2.56,0.972681 -0.528,0.319738 -1.464,0.684637 -2.08,0.81089 -0.616,0.126249 -1.98186,0.645785 -3.03524,1.154518 C 27.27138,43.103763 26.1057,43.52 25.73436,43.52 c -0.90159,0 -1.87531,1.088538 -1.52314,1.702749 0.37252,0.649689 7.48255,7.385107 8.26878,7.83311 0.88783,0.505898 2.58508,0.472125 3.61589,-0.07195 z M 65.51663,35.954067 C 68.13021,34.93209 70.01187,33.229581 71.5358,30.508005 72.55833,28.681862 72.64,28.330692 72.64,25.76 c 0,-2.570106 -0.0819,-2.922278 -1.1035,-4.748005 -1.45994,-2.608979 -3.18091,-4.23389 -5.46919,-5.163917 -2.70113,-1.097819 -3.6184,-0.44507 -3.05033,2.170675 0.1602,0.737686 0.39235,2.462654 0.51587,3.833263 0.19289,2.140241 0.14437,2.580662 -0.34372,3.12 C 62.87655,25.317407 62.31065,25.6 61.93156,25.6 60.64619,25.6 60.12917,24.884571 59.84147,22.707753 59.69115,21.570489 59.41333,19.864346 59.22409,18.916323 59.03484,17.968301 58.88,17.150587 58.88,17.09918 58.88,16.745333 57.75862,16 57.22625,16 c -0.89779,0 -3.3408,2.226865 -4.6182,4.209595 -1.22971,1.908703 -1.54919,3.542631 -1.33754,6.840641 0.12495,1.946846 0.33603,2.661458 1.21416,4.11036 1.31309,2.166594 3.15561,3.738914 5.6259,4.80087 2.52397,1.085036 4.61764,1.082947 7.40606,-0.0074 z m 24.14649,-2.639849 c 1.11486,-0.183668 1.94143,-0.62368 3.2,-1.703476 2.92649,-2.510794 3.45688,-3.082233 3.45688,-3.724438 0,-0.840053 -2.72843,-3.405328 -5.02028,-4.720077 C 88.77308,21.71679 86.5341,21.672775 83.91087,23.02097 81.58746,24.215081 78.72,26.856395 78.72,27.802466 c 0,0.754683 1.5456,2.462176 3.79731,4.195061 1.89346,1.45718 3.97024,1.839849 7.14581,1.316691 z M 79.82586,21.132242 C 81.2938,19.861743 85.43508,18.24 87.21147,18.24 c 0.42814,0 1.23688,-0.409621 1.7972,-0.910269 0.83917,-0.7498 1.01114,-1.13058 0.97551,-2.16 C 89.93448,13.734346 88.78652,12.48 87.52254,12.48 c -1.31349,0 -5.53315,1.810732 -6.85363,2.94102 -1.8685,1.599361 -3.54891,4.193169 -3.54891,5.477932 0,1.930911 0.67697,1.989277 2.70586,0.23329 z"
     id="path3960"
     inkscape:connector-curvature="0" />
</svg>
