<?xml version="1.0" encoding="UTF-8" standalone="no"?>
<!-- Created with Inkscape (http://www.inkscape.org/) -->

<svg
   xmlns:dc="http://purl.org/dc/elements/1.1/"
   xmlns:cc="http://creativecommons.org/ns#"
   xmlns:rdf="http://www.w3.org/1999/02/22-rdf-syntax-ns#"
   xmlns:svg="http://www.w3.org/2000/svg"
   xmlns="http://www.w3.org/2000/svg"
   xmlns:sodipodi="http://sodipodi.sourceforge.net/DTD/sodipodi-0.dtd"
   xmlns:inkscape="http://www.inkscape.org/namespaces/inkscape"
   version="1.1"
   id="svg3919"
   width="128"
   height="113.28"
   viewBox="0 0 128 113.28"
   sodipodi:docname="genrecipe-img-5.svg"
   inkscape:version="0.92.3 (unknown)">
  <path
     style="stroke-width:0.31999999"
     d="m 37.12,112.89349 c 0,-0.21258 -0.52018,-0.91922 -1.15596,-1.57032 -1.68404,-1.72462 -1.81075,-3.37797 -0.45244,-5.90377 0.87785,-1.6324 1.00407,-2.1515 0.89787,-3.69277 C 36.2096,98.825837 33.79924,96.170662 29.28,93.873066 27.696,93.067754 25.73049,92.028867 24.91219,91.564432 24.0939,91.099994 22.8699,90.410973 22.19219,90.03327 21.51449,89.655571 20.096,88.749648 19.04,88.020109 17.984,87.29057 16.5804,86.338042 15.92088,85.903379 14.2512,84.802954 8.08786,78.821757 7.07575,77.319645 6.61609,76.63745 5.96747,75.62945 5.63437,75.079645 5.30127,74.52984 4.68927,73.568259 4.27437,72.9428 3.85947,72.317341 3.52,71.550982 3.52,71.239782 c 0,-0.3112 -0.35196,-1.167459 -0.78214,-1.9028 C 2.30769,68.601642 1.80218,67.03584 1.61451,65.857421 1.19246,63.20729 1.01093,62.72 0.44577,62.72 0.08951,62.72 0,61.948922 0,58.88 0,55.801904 0.0889,55.04 0.448,55.04 0.6944,55.04 1.4,54.536 2.016,53.92 2.88863,53.047376 3.39509,52.8 4.30904,52.8 4.95421,52.8 5.774,52.64377 6.13079,52.452819 6.7202,52.137376 6.75968,51.908355 6.56273,49.9472 6.30065,47.337507 6.7674,45.99447 8.64393,43.958678 10.07506,42.40608 10.1137,42.229466 9.44,40.32 8.53794,37.76329 8.8396,36.203142 10.63012,34.16481 c 0.84282,-0.959469 1.39261,-1.25978 2.78763,-1.522672 2.02665,-0.38192 2.78457,-0.961893 3.07797,-2.355319 0.1166,-0.553751 0.64926,-1.780168 1.18368,-2.725373 0.81143,-1.435107 1.26417,-1.852455 2.745,-2.530401 1.61113,-0.737602 1.8923,-0.775861 3.07445,-0.418345 2.78819,0.843223 3.00183,0.826134 3.61565,-0.289224 0.31103,-0.565152 1.21603,-1.913133 2.01112,-2.995513 0.79509,-1.08238 2.13224,-2.975963 2.97146,-4.207963 0.83921,-1.232 2.02215,-2.888 2.62876,-3.68 0.6066,-0.792 1.39597,-1.944 1.75416,-2.56 0.35819,-0.616 1.15213,-1.768 1.76432,-2.56 0.61218,-0.792 1.49817,-1.9881363 1.96886,-2.658081 0.47978,-0.682887 1.78908,-1.7725356 2.97992,-2.4799998 2.78631,-1.6553145 4.48468,-1.71181 7.33098,-0.243861 2.80004,1.4440944 4.19085,3.2335296 4.50463,5.7957444 0.49339,4.0287764 -0.0481,5.5470074 -3.72135,10.4336204 -0.90896,1.209207 -1.87146,2.621701 -2.1389,3.138875 -0.26744,0.517173 -0.71175,1.127459 -0.98736,1.356191 -0.73803,0.612513 -0.61055,1.984823 0.2989,3.217511 0.45,0.609937 0.8,1.520385 0.8,2.081008 0,0.548168 0.2072,1.276192 0.46044,1.61783 0.408,0.550411 0.51256,0.566489 0.91797,0.141162 0.25164,-0.264 0.60594,-0.92789 0.78734,-1.475312 0.74155,-2.237923 1.86908,-3.519554 3.77796,-4.294312 1.78906,-0.726123 1.8747,-0.731437 3.3491,-0.207778 2.40903,0.855612 3.085611,0.723193 4.735659,-0.926855 C 65.135752,21.988459 65.563874,21.76 67.160818,21.76 c 1.574902,0 2.27776,-0.834938 2.28231,-2.711202 0.0016,-0.708839 0.337396,-2.008798 0.745943,-2.888798 0.40855,-0.88 0.841257,-2.096561 0.961568,-2.703469 0.33632,-1.696538 2.935369,-5.2640225 5.623635,-7.7190587 C 78.108424,4.5190701 79.31564,3.5217014 79.456978,3.5210976 79.598316,3.5204896 80.2375,3.1642442 80.877381,2.7294315 81.517266,2.2946189 82.826312,1.7630753 83.78637,1.5482236 84.991624,1.2784997 85.57878,0.9784291 85.683288,0.578792 85.821036,0.052045 86.277295,0 90.757324,0 c 4.043097,0 4.922678,0.081332 4.922678,0.4551833 0,0.4331758 0.921584,0.8280737 3.037821,1.301705 2.068087,0.462855 6.940327,4.1450883 8.712667,6.5846682 0.56677,0.780144 1.32277,1.8012185 1.68,2.2690555 0.35723,0.467836 0.65005,1.043836 0.65071,1.28 6.7e-4,0.236163 0.43212,1.293388 0.9588,2.349388 0.71039,1.424344 0.95903,2.374351 0.96316,3.68 0.009,2.802282 0.18211,3.08842 2.99843,4.952733 3.63771,2.408042 7.1211,6.162041 7.95051,8.568139 0.197,0.571522 0.63268,1.413787 0.96816,1.871704 0.87286,1.191395 1.29759,5.144285 1.07897,10.041706 -0.16072,3.600336 -0.29304,4.361664 -0.99234,5.709532 -0.44379,0.855386 -0.80689,1.96818 -0.80689,2.472871 0,0.797405 0.17231,0.969248 1.31518,1.311664 0.79696,0.238774 1.64808,0.811245 2.16,1.452835 0.46465,0.582339 1.02482,1.0588 1.24482,1.058806 0.29681,7e-6 0.4,0.949348 0.4,3.68001 0,2.93216 -0.0906,3.68 -0.44576,3.68 -0.56359,0 -0.74647,0.487437 -1.16438,3.103472 -0.18527,1.159744 -0.69078,2.712554 -1.12336,3.450691 -0.43257,0.738138 -0.7865,1.609674 -0.7865,1.936752 0,0.327075 -0.33947,1.106426 -0.75436,1.731885 -0.41491,0.625459 -1.02691,1.58704 -1.36,2.136845 -0.33311,0.549805 -0.98172,1.557805 -1.44138,2.24 -1.01212,1.502112 -7.17546,7.483309 -8.84514,8.583734 -0.65952,0.434663 -2.06312,1.387191 -3.11912,2.11673 -1.056,0.729539 -2.47449,1.635462 -3.15219,2.013161 -0.67771,0.377703 -1.90171,1.066724 -2.72,1.531162 -0.8183,0.464435 -2.78381,1.503322 -4.367808,2.308634 -4.519235,2.297596 -6.929603,4.952771 -7.129472,7.853564 -0.106195,1.54127 0.02003,2.06037 0.897875,3.69277 1.358307,2.5258 1.231603,4.17915 -0.452441,5.90377 -0.63578,0.6511 -1.155962,1.35774 -1.155962,1.57032 0,0.29895 -6.089766,0.38651 -26.88,0.38651 C 43.20977,113.28 37.12,113.1924 37.12,112.89349 Z m 51.027372,-3.76869 c 1.245424,-0.47351 1.34206,-1.20022 0.385817,-2.90134 -0.724739,-1.28928 -0.852477,-1.89609 -0.84847,-4.03062 0.0029,-1.60744 0.172041,-2.801086 0.469107,-3.31284 0.255411,-0.44 0.740931,-1.385773 1.078928,-2.101718 0.7112,-1.506464 4.560118,-5.117431 5.778669,-5.421412 0.455718,-0.113686 1.286973,-0.555488 1.847229,-0.981785 C 97.418908,89.948787 98.081237,89.6 98.330498,89.6 c 0.249258,0 1.086864,-0.429379 1.861352,-0.954176 0.77448,-0.524797 1.53954,-0.956797 1.70013,-0.96 0.29339,-0.0059 2.03969,-1.048979 5.30802,-3.170662 2.61271,-1.69608 6.74864,-5.231559 8.52023,-7.283277 0.85788,-0.99352 1.78128,-2.037133 2.05201,-2.319139 0.69946,-0.728605 2.86776,-4.376 2.86776,-4.823997 0,-0.206131 0.34617,-0.976426 0.76927,-1.711767 0.4231,-0.73534 0.86547,-1.984982 0.98304,-2.776982 0.11757,-0.792 0.47557,-2.232 0.79556,-3.2 1.02779,-3.109232 1.11371,-4.338422 0.35619,-5.095939 L 122.88,56.64 H 64.000002 5.12 L 4.45594,57.304061 C 3.69842,58.061578 3.78434,59.290768 4.81213,62.4 c 0.31999,0.968 0.67799,2.408 0.79556,3.2 0.11758,0.792 0.55994,2.041642 0.98304,2.776982 0.4231,0.735341 0.76927,1.505636 0.76927,1.711767 0,0.447997 2.1683,4.095392 2.86776,4.823997 0.27073,0.282006 1.19414,1.325619 2.05201,2.319139 1.77159,2.051718 5.90752,5.587197 8.52023,7.283277 2.73398,1.774803 6.20741,3.786512 8,4.633379 0.616,0.291011 1.336,0.659328 1.6,0.81848 0.264,0.159152 1.20994,0.644307 2.1021,1.078121 2.14823,1.044596 5.49969,4.112237 6.26618,5.735536 0.33743,0.714628 0.82249,1.659322 1.0779,2.099322 0.29957,0.516064 0.46548,1.7086 0.46746,3.36 0.003,2.16417 -0.11882,2.75791 -0.78529,3.84 -0.98194,1.59428 -1.00342,2.22707 -0.0971,2.86186 0.62808,0.43992 3.46813,0.49814 24.299169,0.49814 14.711267,0 23.899949,-0.11862 24.416999,-0.3152 z M 46.32,103.97437 c -0.35849,-0.2088 -0.56,-0.71525 -0.56,-1.40741 0,-2.18263 -0.81441,-2.08696 17.765013,-2.08696 h 16.759299 l 0.866301,0.74516 c 1.059952,0.91173 0.897232,2.14806 -0.357997,2.71998 -1.077577,0.49098 -33.632446,0.51858 -34.472616,0.0292 z m 0.13293,-6.885311 c -0.50983,-0.357107 -0.69988,-0.766582 -0.6312,-1.36 0.15981,-1.380771 1.76475,-1.968064 5.37827,-1.968064 3.61352,0 5.21846,0.587293 5.37827,1.968064 C 56.75483,97.254518 55.7617,97.6 51.2,97.6 c -3.16142,0 -4.17305,-0.108886 -4.74707,-0.510941 z M 60.16,96.96 C 59.16178,95.961776 59.40446,94.961664 60.82289,94.228163 61.553992,93.850096 63.446476,93.76 70.656789,93.76 c 8.768394,0 8.948074,0.01312 10.015891,0.730995 1.45769,0.979991 1.579088,1.961005 0.32305,2.610531 C 80.185752,97.520381 78.495874,97.6 70.415893,97.6 61.22667,97.6 60.7716,97.5716 60.16,96.96 Z M 53.31535,51.967402 c 1.89522,-1.267786 3.00465,-2.419197 3.00465,-3.11834 0,-0.347158 -0.81328,-1.48384 -1.80729,-2.525958 L 52.70541,44.428346 52.915,40.7588 53.12458,37.089254 51.92229,36.61889 C 48.26275,35.187184 45.76,32.928678 45.76,31.057983 45.76,30.147867 45.24644,29.44 44.58614,29.44 c -0.22322,0 -0.87842,0.67906 -1.456,1.509021 -1.63867,2.354729 -4.68117,5.167126 -5.98027,5.527993 -1.50443,0.417908 -4.23722,0.410807 -5.35432,-0.01392 -1.56732,-0.595894 -4.19916,-3.099488 -4.61282,-4.388032 -0.50965,-1.587592 -1.10136,-2.21374 -2.80351,-2.966682 -1.78183,-0.788189 -1.73678,-0.79107 -2.89711,0.185286 -0.70458,0.59287 -1.02519,1.201748 -1.18145,2.243752 -0.11795,0.786544 -0.50048,1.793702 -0.85007,2.238134 -0.66125,0.84065 -3.59627,2.454496 -5.14191,2.827318 -1.35125,0.32594 -1.66421,1.513226 -0.87134,3.305636 0.35346,0.799068 0.64266,1.706819 0.64266,2.017225 0,0.930355 -1.04344,2.962317 -2.32,4.517898 -1.79744,2.190307 -1.6503,3.128608 0.79606,5.076425 L 14.1636,52.8 h 18.95355 18.95354 z m 35.756847,-0.872144 c 2.239472,-1.913597 2.286983,-2.491725 0.360186,-4.382736 -1.823754,-1.789879 -2.181703,-3.049223 -1.897891,-6.6772 0.236854,-3.027735 0.131372,-3.279248 -1.543104,-3.679456 -1.383405,-0.33064 -3.843991,-1.97112 -4.707175,-3.138288 -0.430173,-0.581668 -0.859101,-1.618519 -0.953174,-2.304113 -0.117591,-0.857008 -0.440762,-1.447581 -1.034195,-1.889906 -0.828429,-0.617485 -0.918989,-0.62205 -2.250698,-0.113465 -1.539312,0.587868 -3.335651,0.683397 -4.465312,0.237462 -0.407459,-0.160843 -1.500224,-1.024843 -2.428371,-1.92 C 69.166415,26.276556 68.172623,25.6 67.761743,25.6 c -0.425882,0 -1.425357,0.714637 -2.534471,1.812181 -1.6848,1.667217 -1.967875,1.823507 -3.538723,1.953775 C 60.5585,29.459666 59.5653,29.333806 58.75148,28.993775 57.1712,28.333491 57.18513,28.331883 56.02456,29.308446 55.17517,30.023159 55.04,30.349271 55.04,31.683894 c 0,1.200855 0.18697,1.769207 0.83562,2.540084 1.18647,1.410035 1.45769,2.933299 1.04274,5.856425 l -0.3521,2.480403 1.14218,1.264256 c 0.6282,0.695341 1.52746,1.846464 1.99837,2.558048 0.79407,1.199914 0.84034,1.454608 0.63781,3.509997 -0.19076,1.935971 -0.14543,2.259363 0.3585,2.557552 0.38903,0.230199 4.807538,0.316602 13.569077,0.265347 L 87.264392,52.64 Z M 66.160002,49.267546 c -0.373114,-0.2261 -0.56,-0.73898 -0.56,-1.53682 0,-0.987747 0.240314,-1.433324 1.372112,-2.544099 1.47904,-1.451568 2.674333,-1.73447 3.56503,-0.843769 0.874212,0.874211 0.614704,2.229065 -0.697142,3.639667 -1.269613,1.365187 -2.714877,1.869859 -3.68,1.285021 z m 9.868342,-4.795584 c -2.290553,-2.11136 -2.668153,-3.8333 -0.981235,-4.474663 1.747008,-0.664211 4.312893,1.501626 4.312893,3.640471 0,0.833712 -0.975786,2.12223 -1.607149,2.12223 -0.179933,0 -0.955961,-0.579619 -1.724509,-1.288038 z M 64.529599,39.414803 c -1.005507,-1.111072 -0.657546,-2.024998 1.638435,-4.303385 2.320166,-2.302388 3.342458,-2.671111 4.342371,-1.566221 0.991357,1.095437 0.654554,2.070777 -1.494681,4.328419 -2.19514,2.305869 -3.414877,2.724902 -4.486125,1.541187 z M 101.4971,51.848944 c 0.49472,-0.610947 0.5829,-1.327888 0.5829,-4.739197 0,-3.290985 0.096,-4.125398 0.5296,-4.60455 0.63345,-0.699959 1.67628,-0.754349 2.52924,-0.131917 0.54961,0.401069 0.63959,0.975437 0.78116,4.986262 0.14156,4.010608 0.23158,4.585268 0.78116,4.986717 0.46403,0.338963 1.71872,0.453437 4.96,0.452544 5.04427,-0.0013 5.92808,-0.329081 7.08321,-2.626249 0.37961,-0.754906 0.90253,-1.614372 1.16204,-1.90993 0.29811,-0.33952 0.59924,-1.850211 0.81788,-4.103008 0.40723,-4.196058 -0.0147,-8.45591 -0.97583,-9.852541 -0.3282,-0.476893 -0.78033,-1.327824 -1.00474,-1.89096 -0.45425,-1.139905 -4.20117,-5.031446 -5.49612,-5.708261 -0.84937,-0.443927 -1.5676,-0.151296 -1.5676,0.638692 0,0.186201 -0.3414,0.985401 -0.75867,1.776 -0.41726,0.7906 -0.86386,1.797454 -0.99243,2.237454 -0.12858,0.44 -0.61819,1.304 -1.08804,1.92 -0.46984,0.616 -1.35524,1.873283 -1.96756,2.793962 -0.61231,0.920675 -1.4013,1.763273 -1.7533,1.872438 -0.352,0.109162 -1.144,0.585139 -1.76,1.057728 -2.59396,1.990058 -4.389604,2.890845 -6.719998,3.371094 -1.63903,0.337773 -2.577558,0.710375 -2.96,1.175136 -0.728691,0.885546 -0.728755,0.885143 0.439898,2.649488 0.956652,1.444282 0.990403,1.605946 0.780326,3.737895 -0.20919,2.122934 -0.184592,2.243283 0.520099,2.544582 0.406823,0.173943 1.809373,0.264557 3.116781,0.201363 1.999054,-0.09662 2.469804,-0.229379 2.959994,-0.834742 z m 6.46314,-10.916525 c -1.29725,-0.376115 -1.79111,-1.000976 -1.66336,-2.104585 0.14312,-1.236458 1.71244,-1.652605 6.34312,-1.682045 3.14415,-0.02 3.833,0.06989 4.73075,0.617238 0.57791,0.352349 1.12899,0.84456 1.22464,1.093799 0.30242,0.788105 -0.43389,1.657452 -1.73364,2.046867 -1.45415,0.435673 -7.43138,0.454963 -8.90151,0.02874 z M 95.725685,38.523174 c 4.048883,-1.037276 8.422035,-4.446182 10.010405,-7.803174 0.37474,-0.792 0.96542,-1.865182 1.31262,-2.384849 0.54981,-0.822901 0.64505,-1.611054 0.73792,-6.106553 0.1147,-5.553022 0.19054,-5.17741 -1.84357,-9.131353 -1.02756,-1.997372 -4.02059,-5.184181 -5.951109,-6.3363944 -1.532679,-0.9147629 -5.153757,-2.2025837 -7.351949,-2.614689 -1.936403,-0.3630262 -4.350467,-0.101472 -6.08,0.6587437 -0.704,0.3094435 -1.770458,0.6673043 -2.369907,0.7952467 -1.972816,0.4210643 -5.398131,3.1059136 -7.419191,5.815348 -1.112048,1.490814 -1.598438,2.483688 -3.029667,6.1845 -0.239382,0.618979 -0.439427,2.362329 -0.44719,3.897143 -0.01962,3.877212 0.587549,4.391086 3.828265,3.240086 1.515309,-0.538191 1.54538,-0.535482 3.562948,0.320919 1.11911,0.475031 2.277984,0.863278 2.57528,0.862772 0.297296,-5.06e-4 1.206054,-0.57692 2.019462,-1.28092 2.206179,-1.909435 4.32,-1.67669 4.32,0.47566 0,0.284753 -1.008,1.582706 -2.24,2.88434 -1.232,1.301634 -2.237795,2.55412 -2.235101,2.783303 0.01138,0.967726 1.304701,1.856697 2.701213,1.856697 1.102394,0 3.693888,2.371229 3.693888,3.379923 0,0.957661 0.575386,2.460506 1.060019,2.768666 0.54048,0.343664 0.880013,0.315017 3.145664,-0.265415 z M 96.136232,29.84 C 94.451292,28.124 92.867346,26.435959 92.616354,26.088798 91.579839,24.655142 92.356655,23.36 94.253071,23.36 c 1.461945,0 7.506929,6.223011 7.506929,7.728012 0,0.783486 -1.11649,1.871988 -1.920116,1.871988 -0.386922,0 -1.851908,-1.234123 -3.703652,-3.12 z m -9.25623,-9.672508 c -1.254938,-0.533232 -6.535987,-6.200359 -6.742214,-7.235111 -0.240455,-1.206483 0.47414,-2.054632 1.725072,-2.047481 1.072803,0.0061 0.89248,-0.139002 4.617142,3.716147 3.359965,3.477674 3.781507,4.419325 2.408797,5.380808 -0.791898,0.554666 -1.078064,0.581112 -2.008797,0.185637 z m 5.664,-0.391492 c -0.907552,-0.907551 -0.396256,-1.90094 2.576,-5.004869 1.628,-1.700122 3.176,-3.266551 3.44,-3.480954 0.729456,-0.592414 2.073298,-0.484777 2.708328,0.216929 0.94445,1.04361 0.35023,2.143887 -2.975355,5.509209 -2.764394,2.797426 -3.230941,3.143685 -4.23577,3.143685 -0.621062,0 -1.302003,-0.1728 -1.513203,-0.384 z M 36.96645,32.061574 c 0.71788,-0.541501 4.52251,-5.444321 5.24542,-6.759499 0.24853,-0.452142 1.47253,-2.213204 2.72,-3.913473 1.24747,-1.700269 2.51687,-3.500269 2.82089,-4 C 48.05678,16.888871 48.81221,15.832 49.4315,15.04 50.93534,13.116749 51.2,12.425687 51.2,10.422323 51.2,8.4985005 50.61434,7.5213229 48.78295,6.3894586 46.74005,5.1268826 44.35205,6.3099648 42.07626,9.7121379 40.38709,12.237337 38.24619,15.30175 36.56553,17.6 c -4.41515,6.037591 -6.46763,9.410742 -6.47805,10.646359 -0.008,0.954917 1.36093,3.391258 2.19909,3.913641 1.37532,0.857174 3.47146,0.813088 4.67988,-0.09843 z"
     id="path3981"
     inkscape:connector-curvature="0" />
</svg>
