<?xml version="1.0" encoding="UTF-8" standalone="no"?>
<!-- Created with Inkscape (http://www.inkscape.org/) -->

<svg
   xmlns:dc="http://purl.org/dc/elements/1.1/"
   xmlns:cc="http://creativecommons.org/ns#"
   xmlns:rdf="http://www.w3.org/1999/02/22-rdf-syntax-ns#"
   xmlns:svg="http://www.w3.org/2000/svg"
   xmlns="http://www.w3.org/2000/svg"
   xmlns:sodipodi="http://sodipodi.sourceforge.net/DTD/sodipodi-0.dtd"
   xmlns:inkscape="http://www.inkscape.org/namespaces/inkscape"
   version="1.1"
   id="svg80"
   width="127.98855"
   height="96.637276"
   viewBox="0 0 127.98855 96.637275"
   sodipodi:docname="genrecipe-img-1.svg"
   inkscape:version="0.92.3 (unknown)">
  <path
     style="stroke-width:0.31999999"
     d="m 72.732192,96.061311 c -0.19877,-0.318278 -0.96528,-0.759616 -1.70336,-0.980752 -0.73809,-0.221136 -1.79809,-0.680186 -2.35558,-1.020115 -0.55749,-0.33993 -1.23174,-0.618592 -1.49835,-0.619248 -0.26661,-6.4e-4 -0.98661,-0.268016 -1.6,-0.594125 -0.61339,-0.326112 -1.68781,-0.780019 -2.38759,-1.008685 -0.69977,-0.228665 -1.70777,-0.681312 -2.24,-1.005875 -0.53222,-0.324566 -1.19823,-0.590659 -1.48001,-0.591315 -0.28179,-6.4e-4 -1.18941,-0.361197 -2.01694,-0.801197 -0.82752,-0.44 -1.69152,-0.8 -1.92,-0.8 -0.22847,0 -1.09247,-0.36 -1.92,-0.8 -0.82752,-0.44 -1.69152,-0.8 -1.92,-0.8 -0.22847,0 -1.09247,-0.36 -1.92,-0.8 -0.82752,-0.44 -1.68469,-0.8 -1.90482,-0.8 -0.22014,0 -1.11252,-0.345414 -1.98307,-0.767587 -0.87056,-0.422173 -2.12541,-0.938192 -2.78857,-1.14671 -1.27727,-0.401616 -3.43426,-2.814765 -3.43426,-3.842109 0,-0.800279 2.28117,-4.192087 3.5211,-5.235418 1.14135,-0.960381 0.97898,-0.949859 5.4389,-0.352477 1.88294,0.252212 3.4259,-0.725712 4.06393,-2.575699 0.39954,-1.158512 0.37591,-1.484304 -0.24898,-3.432541 -0.65939,-2.055827 -0.66665,-2.211913 -0.16169,-3.473961 0.72043,-1.800518 0.35468,-2.161453 -2.30993,-2.279504 -1.91267,-0.08474 -2.16798,-0.176995 -2.59339,-0.93712 -0.42289,-0.755613 -0.41495,-0.92999 0.0765,-1.68 0.54657,-0.834173 0.56229,-0.836874 4.87345,-0.836874 h 4.32511 l 1.18751,-1.209027 c 1.5429,-1.570848 3.34524,-3.582624 7.08742,-7.910973 1.67383,-1.935999 3.56445,-4.095999 4.2014,-4.799999 9.19139,-10.158976 9.2587,-10.248375 9.2587,-12.29681 0,-0.822318 -0.22152,-1.79704 -0.49815,-2.191988 L 77.383382,29.76 h -36.55786 c -28.00722,0 -36.6476701,0.08982 -36.9418501,0.384 -0.28684,0.286832 -0.384,3.887276 -0.384,14.228742 0,13.480899 0.0167,13.85367 0.635,14.184582 0.38889,0.208125 2.45298,0.305507 5.32562,0.251258 3.7793901,-0.07137 4.7398601,-0.181831 4.9441001,-0.568583 0.13942,-0.264 0.73089,-1.466137 1.31438,-2.67142 1.28101,-2.646093 3.2477,-4.429508 5.88552,-5.337053 2.35744,-0.811075 3.93423,-0.797587 6.26877,0.05363 3.13519,1.143145 4.62642,2.839952 6.99108,7.954844 0.16178,0.34994 0.94703,0.523354 2.89801,0.64 2.48149,0.148365 2.71039,0.221312 3.14777,1.003127 0.42266,0.755504 0.41469,0.930099 -0.0767,1.68 L 40.284882,62.4 H 21.871222 C 9.9272119,62.399999 3.2425719,62.28494 2.8456719,62.072524 c -0.33654,-0.180112 -0.96853,-0.684112 -1.40442,-1.12 -0.43589,-0.435888 -0.94307003,-0.792525 -1.12707003,-0.792525 -0.2287,0 -0.32764,-5.23942 -0.31272,-16.559999 l 0.0218,-16.56 2.61819003,-1.242451 c 2.40048,-1.139143 3.87588,-1.825236 8.3781801,-3.896033 0.88,-0.40475 2.968,-1.375792 4.64,-2.157873 1.672,-0.78208 3.904,-1.814786 4.96,-2.294901 1.056,-0.480115 2.928,-1.345715 4.16,-1.923555 1.232,-0.577841 3.104,-1.439911 4.16,-1.915713 1.056,-0.475802 2.172,-0.99658 2.48,-1.157284 0.308,-0.160705 0.812,-0.424725 1.12,-0.586713 4.55161,-2.3938434 6.61692,-2.7634234 8.4586,-1.513629 3.03416,2.059035 5.7963,0.673686 6.31772,-3.1686388 0.13191,-0.9720512 0.37677,-1.9043043 0.54414,-2.0716736 C 48.317542,4.6540841 55.108572,1.28 55.571832,1.28 c 0.2213,0 0.58223,-0.28799996 0.80206,-0.63999996 C 56.703872,0.11161854 57.120142,0 58.760702,0 c 1.37668,0 2.06574,0.13874544 2.24303,0.45164574 0.14074,0.2484052 1.0479,0.98989576 2.0159,1.64775696 2.68459,1.8244737 6.14811,5.0216606 8.40272,7.7565889 2.63714,3.1989514 5.98766,8.3544714 7.11239,10.9440084 0.26755,0.616 0.75534,1.624 1.08396,2.24 0.54186,1.015694 1.24184,3.195882 1.77228,5.52 0.29015,1.271312 1.48077,1.184059 2.52503,-0.185045 1.69969,-2.228397 5.76901,-6.479052 6.73539,-7.035524 1.31383,-0.756547 3.81278,-0.511679 5.97862,0.585836 0.86258,0.437103 1.75426,0.794733 1.98151,0.794733 0.22726,0 1.08945,0.36 1.915988,0.8 0.82654,0.44 1.68939,0.800542 1.91745,0.801203 0.22806,6.72e-4 1.27866,0.432121 2.33466,0.958797 1.056,0.526676 2.09238,0.958134 2.30307,0.958796 0.21068,6.72e-4 1.06013,0.361204 1.88766,0.801204 0.82752,0.44 1.69152,0.8 1.92,0.8 0.22847,0 1.09247,0.36 1.92,0.8 0.82752,0.44 1.70574,0.8 1.95159,0.8 0.24585,0 1.12325,0.36 1.94979,0.8 0.82654,0.44 1.69054,0.8 1.92,0.8 0.22946,0 1.09346,0.36 1.92,0.8 0.82654,0.44 1.70729,0.8 1.95723,0.8 0.24994,0 1.04308,0.340579 1.76254,0.756841 0.71947,0.416263 1.85013,0.932093 2.51258,1.146288 l 1.20446,0.389447 -0.0845,10.113472 -0.0845,10.113475 -1.11079,0.287731 c -0.95544,0.247491 -1.1904,0.189417 -1.68,-0.415213 -0.50057,-0.618182 -0.56921,-1.42953 -0.56921,-6.728608 0,-3.707555 -0.12421,-6.102425 -0.32286,-6.225203 -0.70662,-0.436714 -1.61612,0.323661 -4.69518,3.925354 -3.66367,4.285526 -4.76817,5.538943 -9.22196,10.46535 -1.76,1.946761 -4.41884,4.977654 -5.90854,6.735315 -1.4897,1.757664 -4.08729,4.70775 -5.772438,6.55575 -1.68513,1.848 -3.99374,4.44 -5.13024,5.76 -2.59267,3.011309 -7.14834,8.087075 -9.98143,11.120963 -1.19204,1.276531 -2.16735,2.536531 -2.16735,2.8 0,0.670467 2.29594,0.634007 3.61589,-0.05742 0.56326,-0.29505 1.88811,-0.787063 2.94411,-1.093364 1.8646,-0.540838 2.84511,-0.865686 7.2,-2.385388 1.144,-0.399216 2.6833,-0.886288 3.42067,-1.082378 1.55283,-0.412944 1.828968,-0.93871 1.860528,-3.542416 0.0301,-2.485654 1.31462,-4.535398 3.96049,-6.32 1.65372,-1.115408 2.28368,-1.36 3.50274,-1.36 2.09987,0 4.60339,1.349613 6.42304,3.462579 1.41235,1.640016 1.5232,1.701869 2.71237,1.513504 0.68192,-0.108012 1.83392,-0.461676 2.56,-0.78592 0.72609,-0.32424 1.85791,-0.762096 2.51516,-0.973011 2.32453,-0.745961 2.485,-1.254768 2.485,-7.879475 0,-3.220806 0.14044,-6.225389 0.31208,-6.676845 0.32055,-0.84312 1.01099,-1.01494 2.48792,-0.619139 l 0.72,0.192951 v 7.461113 c 0,6.975866 -0.0385,7.473325 -0.59144,7.648829 -0.32529,0.103245 -0.73998,0.508947 -0.92153,0.901565 -0.18155,0.392617 -1.1034,1.102588 -2.04856,1.577715 -1.64031,0.824576 -2.46247,1.126742 -6.83847,2.513321 -3.61319,1.144877 -6.08057,1.98546 -8.05458,2.744029 -1.08602,0.417331 -2.20917,0.758784 -2.49589,0.758784 -0.28672,0 -0.98216,0.241021 -1.54542,0.535603 -0.56326,0.294583 -1.74411,0.719754 -2.62411,0.944823 -1.68351,0.430576 -4.656948,1.407363 -11.519998,3.784371 -0.88,0.304787 -2.32,0.753913 -3.2,0.998057 -0.88,0.244148 -2.248,0.713322 -3.04,1.042615 -2.06205,0.857347 -5.36397,1.95896 -7.04,2.348742 -0.792,0.184189 -1.73728,0.607341 -2.10063,0.940339 -0.86336,0.791255 -2.73967,0.806816 -3.22682,0.02675 z m 1.48957,-4.222448 c 0.33002,-0.176624 3.47325,-3.596624 6.98495,-7.6 3.5117,-4.003376 7.80421,-8.874979 9.53891,-10.825785 1.73471,-1.95081 4.59402,-5.180983 6.35402,-7.17816 1.76,-1.997181 3.424748,-3.857066 3.699438,-4.133079 0.27469,-0.276012 2.50171,-2.80584 4.94892,-5.62184 2.44722,-2.816 5.82247,-6.638873 7.50056,-8.495276 5.90477,-6.532195 9.29108,-10.541408 9.29108,-11.000141 0,-0.453293 -3.46511,-2.424582 -4.26191,-2.424582 -0.22152,0 -0.97322,-0.299213 -1.67043,-0.664919 -2.01055,-1.054579 -4.22202,-1.643753 -4.86629,-1.296467 -0.30876,0.166426 -0.99337,0.881133 -1.52137,1.588234 -1.43255,1.918476 -4.03372,3.32583 -6.47362,3.502521 -1.71125,0.123927 -2.23248,0.02106 -3.68,-0.726182 -1.949948,-1.006618 -3.076418,-1.994842 -4.320338,-3.790128 -0.83121,-1.199646 -0.88604,-1.487626 -0.88604,-4.653603 0,-3.290995 -0.0204,-3.386285 -0.82218,-3.836343 -1.4476,-0.812603 -2.25554,-0.275195 -5.82028,3.871416 -1.85604,2.159009 -3.91375,4.501471 -4.57268,5.205471 -0.65894,0.704 -3.15032,3.512 -5.53641,6.24 -2.38609,2.728 -5.06511,5.752854 -5.9534,6.721897 -2.5433,2.774538 -5.97626,6.663504 -8.19018,9.278102 -1.11771,1.32 -3.46074,3.965415 -5.20673,5.878701 l -3.17452,3.478701 0.26449,1.481299 c 0.33004,1.848384 0.35575,5.048176 0.0495,6.164374 -0.12721,0.463693 -0.84565,1.493476 -1.59654,2.288407 -1.84238,1.950461 -4.32414,2.730809 -6.8717,2.160691 -1.46626,-0.328134 -1.83338,-0.31144 -2.48089,0.112826 -0.41798,0.273872 -0.86134,0.81735 -0.98524,1.207724 -0.28897,0.910471 0.81218,1.904064 2.95349,2.664989 0.84878,0.301623 2.26531,0.893527 3.14784,1.315344 0.88252,0.421821 1.77491,0.766944 1.98307,0.766944 0.20816,0 1.05554,0.36 1.88306,0.8 0.82753,0.44 1.70574,0.8 1.95159,0.8 0.24585,0 1.12326,0.36 1.9498,0.8 0.82653,0.44 1.71994,0.800538 1.98534,0.801197 0.2654,6.4e-4 0.918,0.266749 1.45022,0.591315 0.53223,0.324563 1.54023,0.772074 2.24,0.994467 0.69978,0.222391 1.56032,0.582467 1.91232,0.800167 0.352,0.217696 1.216,0.58022 1.92,0.805603 0.704,0.225385 1.64,0.608963 2.08,0.8524 0.95759,0.529795 3.19199,1.340758 3.78104,1.372304 0.23157,0.01242 0.69106,-0.121965 1.02109,-0.298589 z m -6.66313,-7.98239 c -1.83667,-1.451799 -2.45769,-2.866951 -2.21255,-5.041815 0.19755,-1.752707 1.6177,-3.357081 3.66303,-4.138198 1.17219,-0.447661 1.59613,-0.470173 2.68887,-0.142781 2.7373,0.820115 4.37604,3.374323 3.91772,6.10632 -0.26502,1.579699 -0.81104,2.324147 -2.54905,3.475354 -2.15099,1.424758 -3.45564,1.36344 -5.50802,-0.25888 z m 4.41091,-3.296474 c 0.44013,-0.790278 0.44013,-0.969721 0,-1.76 -0.9396,-1.687123 -3.1899,-0.977443 -3.1899,1.006007 0,1.793945 2.30703,2.339257 3.1899,0.753993 z m 0.82689,-12.897126 c -2.42694,-1.007491 -3.27431,-1.801011 -4.25009,-3.980013 -0.97656,-2.180745 -1.00553,-3.85536 -0.10246,-5.922861 0.91884,-2.103625 1.75704,-2.974972 3.69576,-3.841894 2.58909,-1.157744 3.372,-1.222755 5.46961,-0.454189 2.46637,0.903674 4.17202,2.540992 4.78009,4.588583 1.31949,4.443206 -0.50684,8.198252 -4.74171,9.749225 -2.29636,0.841018 -2.5052,0.83504 -4.8512,-0.138851 z m 4.51538,-3.37512 c 1.12369,-0.69448 2.34783,-2.663622 2.34783,-3.776714 0,-1.658368 -2.54698,-4.19104 -4.21473,-4.19104 -1.72095,0 -4.42527,2.561728 -4.42527,4.191943 0,1.037062 1.18903,2.925235 2.33514,3.708169 1.30902,0.894234 2.58431,0.916032 3.95703,0.06764 z m 15.72254,-6.665555 c -2.43054,-1.214567 -3.37897,-3.037997 -2.97641,-5.722419 0.3694,-2.463309 3.47297,-4.830259 5.76877,-4.399565 1.67345,0.313939 3.93411,2.292985 4.339658,3.799046 0.55588,2.0644 0.13981,3.772899 -1.238288,5.084675 -1.95559,1.861479 -3.85006,2.259504 -5.89373,1.238263 z m 3.45319,-3.699866 c 1.13444,-1.731382 -0.574,-3.701648 -2.2548,-2.600349 -0.95409,0.625152 -1.08529,1.926852 -0.28351,2.81282 0.75444,0.833648 1.9166,0.736368 2.53831,-0.212471 z m 10.608528,27.960077 c 3.55966,-0.971181 4.3049,-1.407731 4.18306,-2.450368 -0.15628,-1.337373 -1.97987,-2.407997 -3.76757,-2.211933 -2.51699,0.276048 -4.83507,3.588742 -3.46792,4.955891 0.47233,0.472327 0.1214,0.50608 3.05243,-0.29359 z M 30.753282,58.090051 c 0.3192,-0.700554 0.22178,-0.958535 -0.86084,-2.279732 -1.27676,-1.558115 -3.82359,-3.007235 -5.2728,-3.000166 -2.76887,0.0135 -6.97529,3.756979 -6.08689,5.416979 0.33182,0.620007 0.6391,0.652867 6.10501,0.652867 h 5.7556 z M 105.31881,33.933379 c 0.40746,-0.16864 1.24128,-0.731415 1.85294,-1.250608 0.99336,-0.843196 1.07878,-1.037721 0.8,-1.821822 -0.24272,-0.682676 -0.69185,-1.001364 -2.02021,-1.433494 -0.93946,-0.305614 -1.86826,-0.715815 -2.064,-0.911559 C 103.69179,28.320153 103.29389,28.16 103.0033,28.16 c -0.29058,0 -1.20541,-0.36 -2.03293,-0.8 -1.863728,-0.990954 -1.971288,-0.990297 -2.630678,0.01606 -0.46257,0.70597 -0.48362,1.044347 -0.15601,2.508243 0.37414,1.671833 1.48127,3.105733 3.075958,3.983826 0.79554,0.438055 3.07009,0.474615 4.05917,0.06525 z M 76.273462,26.045763 c 0.57186,-0.219441 0.69924,-1.888673 0.16913,-2.216299 -0.18537,-0.114568 -0.68987,-0.951066 -1.12111,-1.858885 C 74.890252,21.06276 74.187822,19.744 73.760532,19.04 c -0.42729,-0.704 -1.02391,-1.712 -1.32582,-2.24 -2.01697,-3.527403 -9.9026,-11.4516794 -12.80507,-12.8678167 -0.9643,-0.4704905 -1.08709,-0.4361699 -4.73143,1.322424 -2.57498,1.2425722 -3.82713,2.0267952 -4.01631,2.5154214 -1.52727,3.9447363 -1.91551,4.5701533 -3.5694,5.7499713 -1.5019,1.071401 -1.89064,1.199824 -3.62752,1.19836 -1.50575,-0.0013 -2.23459,-0.179789 -3.22534,-0.790013 -1.60341,-0.987567 -2.40862,-1.000381 -4.2767,-0.06806 -1.89684,0.946676 -4.37291,2.125239 -7.4033,3.523832 -1.32,0.609209 -3.696,1.712497 -5.28,2.451751 -4.55286,2.124821 -6.56755,3.046273 -8.8,4.02484 -2.52106,1.105072 -2.69728,1.239992 -2.45254,1.87778 0.17294,0.450671 3.40228,0.50151 31.85632,0.50151 17.41513,0 31.89165,-0.08741 32.17004,-0.194237 z m -22.09676,-5.200705 c -1.15952,-0.729023 -2.47827,-2.360517 -2.98471,-3.692571 -0.74844,-1.968536 1.26099,-5.278665 3.60239,-5.934217 3.10696,-0.869893 5.58034,0.435727 6.7724,3.574931 l 0.57461,1.513202 -0.85102,1.686798 c -1.14279,2.265093 -2.3978,3.20887 -4.4701,3.361549 -1.2326,0.09081 -1.89006,-0.03595 -2.64357,-0.509692 z M 57.899642,17.28 c 0.352,-0.352 0.64,-0.856 0.64,-1.12 0,-0.748454 -1.19547,-1.76 -2.08,-1.76 -0.88454,0 -2.08,1.011546 -2.08,1.76 0,0.748453 1.19546,1.76 2.08,1.76 0.44,0 1.088,-0.288 1.44,-0.64 z m -14.79542,32.464467 c -1.3426,-0.839805 -2.07831,-1.595082 -2.82496,-2.900087 -0.91638,-1.601664 -0.99725,-1.962083 -0.87605,-3.904464 0.10963,-1.757011 0.31704,-2.406998 1.15917,-3.63254 0.56411,-0.820941 1.70776,-1.947856 2.54145,-2.504256 1.43595,-0.958333 1.65139,-1.006141 4.08916,-0.907376 2.33915,0.09477 2.6919,0.198172 3.87587,1.136195 0.71639,0.567565 1.71838,1.575565 2.22665,2.24 0.8609,1.125405 0.92413,1.405113 0.92413,4.088061 0,2.800377 -0.0303,2.917657 -1.09523,4.242083 -0.60238,0.749145 -1.76699,1.793145 -2.58802,2.32 -1.26281,0.810339 -1.81045,0.957916 -3.55478,0.957916 -1.80755,0 -2.28601,-0.140124 -3.87739,-1.135532 z m 6.61263,-3.462253 c 1.05211,-0.992266 1.14279,-1.223318 1.14279,-2.912 0,-1.659302 -0.10376,-1.937968 -1.088,-2.922214 -0.98351,-0.983504 -1.26365,-1.088 -2.91684,-1.088 -1.69979,0 -1.90528,0.08345 -2.912,1.182534 -0.92954,1.014813 -1.08316,1.410026 -1.08316,2.786506 0,1.418054 0.13735,1.744636 1.18494,2.817468 1.07284,1.098685 1.34316,1.213492 2.85722,1.213492 1.45916,0 1.8179,-0.137351 2.81505,-1.077786 z m -23.21313,-3.13665 c -0.63575,-0.169561 -1.69594,-0.861321 -2.35596,-1.537248 -2.14858,-2.200342 -1.8965,-5.473628 0.57766,-7.501017 2.43314,-1.99377 4.41843,-1.928397 6.69396,0.220422 1.11875,1.056445 1.4782,1.65416 1.64311,2.732205 0.29951,1.957984 -0.25425,3.668179 -1.55857,4.813386 -0.91474,0.803152 -3.04773,1.73631 -3.68428,1.61183 -0.088,-0.01722 -0.68017,-0.170019 -1.31592,-0.339578 z M 29.099642,39.36 c 0.76883,-0.768836 0.81231,-1.531588 0.14185,-2.488797 -0.91127,-1.301031 -3.02185,-0.533869 -3.02185,1.098393 0,0.843178 1.02911,2.030404 1.76,2.030404 0.264,0 0.768,-0.288 1.12,-0.64 z"
     id="path90"
     inkscape:connector-curvature="0" />
</svg>
