<?xml version="1.0" encoding="UTF-8" standalone="no"?>
<!-- Created with Inkscape (http://www.inkscape.org/) -->

<svg
   xmlns:dc="http://purl.org/dc/elements/1.1/"
   xmlns:cc="http://creativecommons.org/ns#"
   xmlns:rdf="http://www.w3.org/1999/02/22-rdf-syntax-ns#"
   xmlns:svg="http://www.w3.org/2000/svg"
   xmlns="http://www.w3.org/2000/svg"
   xmlns:sodipodi="http://sodipodi.sourceforge.net/DTD/sodipodi-0.dtd"
   xmlns:inkscape="http://www.inkscape.org/namespaces/inkscape"
   version="1.1"
   id="svg196"
   width="128"
   height="110.65202"
   viewBox="0 0 128 110.65202"
   sodipodi:docname="genrecipe-img-3.svg"
   inkscape:version="0.92.3 (unknown)">
  <path
     style="stroke-width:0.31999999"
     d="m 14.08,110.18442 c 0,-0.28393 -0.62338,-0.65273 -1.587,-0.93889 -2.3066,-0.68499 -4.39831,-1.969 -6.52152,-4.00326 C 4.04668,103.39809 2.16492,100.78876 1.77743,99.426594 1.28679,97.701838 0.85985,96.892024 0.44118,96.892024 0.09762,96.892024 0,96.227624 0,93.889346 0,91.045963 0.0382,90.87643 0.72,90.693717 c 0.396,-0.106125 2.97622,-0.194922 5.73383,-0.197325 2.7576,-0.0026 5.2416,-0.09177 5.52,-0.198605 1.00442,-0.38543 0.58405,-1.837094 -0.96695,-3.339136 C 9.48007,85.480021 8.43022,84.060392 7.01099,81.555307 5.36434,78.648821 5.12391,78.165419 5.12197,77.757365 5.12097,77.529304 4.76,76.66645 4.32,75.839912 3.88,75.013374 3.52,74.086114 3.52,73.779333 3.52,73.472552 3.088,71.921262 2.56,70.332024 2.032,68.742786 1.6,66.98844 1.6,66.433474 1.6,64.408856 0.9083,61.372024 0.44715,61.372024 0.0739,61.372024 0,59.732571 0,51.452024 c 0,-8.321856 0.0727,-9.92 0.45109,-9.92 0.44385,0 0.82126,-1.739699 1.30139,-5.998816 C 1.85657,34.609858 2.22517,33.193147 2.5716,32.384965 2.91803,31.576779 3.29005,30.316246 3.39832,29.58378 3.50658,28.851314 3.93825,27.650382 4.35758,26.915042 4.77691,26.179701 5.12,25.382149 5.12,25.142703 c 0,-0.239446 0.30397,-1.005804 0.67549,-1.703018 0.37152,-0.697213 0.89968,-1.699661 1.1737,-2.227661 1.79287,-3.45473 6.31664,-8.518367 8.56208,-9.583902 0.63875,-0.303103 1.63135,-0.870047 2.2058,-1.259875 1.74095,-1.1814446 6.14504,-1.6136642 12.22189,-1.1994616 2.79457,0.19048 6.16104,0.416783 7.48104,0.502894 1.32,0.08611 3.264,0.4330256 4.32,0.7709206 1.056,0.337894 2.712,0.709157 3.68,0.825028 0.968,0.115871 2.696,0.548312 3.84,0.960982 1.144,0.412668 2.656,0.893899 3.36,1.069401 1.95528,0.487435 8.06194,3.029734 11.68,4.862565 9.391204,4.757382 16.009963,9.605662 23.913902,17.517077 3.032643,3.035513 5.841526,5.601344 6.241965,5.701849 0.400435,0.100503 4.626736,0.139936 9.391773,0.08763 l 8.66372,-0.0951 1.8315,-1.383338 c 2.35262,-1.77694 4.19174,-2.602608 5.79714,-2.602608 2.34364,0 5.34925,1.82385 6.43679,3.905946 0.2528,0.484 0.67195,0.88 0.93143,0.88 0.38076,0 0.47178,0.555629 0.47178,2.88 0,2.236682 -0.0987,2.88 -0.44202,2.88 -0.44574,0 -1.68473,1.45024 -2.41147,2.82264 -0.34911,0.659258 -0.25891,0.937712 0.8033,2.48 0.65812,0.955541 1.38863,1.737352 1.62338,1.737352 0.32413,0 0.42681,0.692848 0.42681,2.88 0,2.324371 -0.091,2.88 -0.47178,2.88 -0.25948,0 -0.68631,0.414848 -0.94851,0.921882 -0.6017,1.163571 -2.20492,2.526227 -3.85971,3.280569 -2.48372,1.132215 -4.84385,0.605671 -7.94619,-1.772793 -0.85041,-0.651978 -1.90378,-1.32137 -2.34083,-1.487536 -1.32909,-0.505316 -17.22247,-0.38425 -18.443257,0.140492 -0.566346,0.243437 -2.649722,2.104839 -4.629722,4.136448 -3.963539,4.066855 -4.299558,4.806304 -2.765194,6.085152 0.459143,0.382682 1.376596,1.163786 2.038784,1.735786 2.148893,1.856221 3.791226,1.313882 5.450922,-1.800026 0.546445,-1.025235 1.596976,-2.44974 2.334512,-3.165568 1.590822,-1.544 4.858935,-2.954406 6.845785,-2.954406 3.1723,0 7.30265,2.675994 8.89045,5.76 0.8814,1.711946 1.60272,2.394688 4.18329,3.959562 3.48568,2.113734 4.91257,4.472585 4.96052,8.200438 0.0168,1.303731 0.2882,2.296803 1.047,3.830659 1.12571,2.275501 1.78489,2.763098 4.13393,3.057837 l 1.52,0.19072 v 3.02039 c 0,2.353335 -0.0974,3.020394 -0.44118,3.020394 -0.41867,0 -0.84561,0.809814 -1.33625,2.53457 -0.38749,1.362166 -2.26925,3.971496 -4.19405,5.815676 -2.1232,2.03426 -4.21492,3.31827 -6.52152,4.00326 -0.96362,0.28616 -1.587,0.65496 -1.587,0.93889 0,0.40814 -6.34821,0.4676 -49.92,0.4676 -43.57179,0 -49.92,-0.0595 -49.92,-0.4676 z m 99.84,-4.2257 c 4.22032,-1.50591 7.59653,-4.6159 9.14317,-8.422203 0.75194,-1.850512 0.77318,-2.042407 0.30513,-2.756727 l -0.50306,-0.767766 H 64.15262 c -58.28595,0 -58.71727,0.0046 -59.35262,0.64 -0.80953,0.80953 -0.80816,0.829898 0.20749,3.081331 1.70147,3.771745 4.83139,6.656525 8.86094,8.166965 l 2.29157,0.85897 47.68,0.0279 47.68,0.0279 2.4,-0.85638 z M 27.94253,90.013547 c 2.72084,-0.708688 4.12989,-1.539283 6.65949,-3.925577 5.11052,-4.821008 7.67998,-10.396983 10.13593,-21.995946 0.44541,-2.103581 0.54129,-4.38568 0.53779,-12.8 C 45.27174,41.280814 45.25154,40.96053 44.3775,36.957003 43.17601,31.453355 42.22112,28.600229 40.17891,24.412024 35.48194,14.779409 28.25342,10.712217 20.24337,13.195109 18.12128,13.852897 15.01544,16.192695 13.09719,18.578721 11.671,20.352689 8.96,24.626719 8.96,25.101206 c 0,0.125815 -0.29212,0.832195 -0.64916,1.569733 -0.62492,1.29093 -1.33072,3.452389 -2.34489,7.181085 -0.26328,0.968 -0.81333,3.704 -1.22232,6.08 -0.64453,3.744304 -0.74041,5.343459 -0.71945,12 0.0209,6.645978 0.11786,8.104813 0.72,10.835226 0.3827,1.735372 0.69582,3.564256 0.69582,4.064185 0,1.266307 1.7351,6.617815 3.26192,10.060589 2.63448,5.940426 6.3826,10.365162 10.31474,12.176752 3.32188,1.530438 5.70778,1.782979 8.92587,0.944771 z M 20.2467,84.552331 c -2.0755,-1.176409 -5.06512,-4.218544 -6.11294,-6.220307 -0.32244,-0.616 -0.81168,-1.552 -1.08719,-2.08 -0.87018,-1.667629 -1.90751,-4.427309 -2.22526,-5.92 -0.1686,-0.792 -0.69236,-2.952 -1.16392,-4.8 -0.84839,-3.324739 -0.85729,-3.474176 -0.84758,-14.24 0.01,-10.726054 0.0218,-10.925277 0.85548,-14.08 0.46512,-1.76 0.98447,-3.848 1.15411,-4.64 0.72009,-3.361831 3.45631,-8.895367 5.62242,-11.370371 2.11561,-2.4173 5.78602,-4.309629 8.35907,-4.309629 4.27588,0 8.82103,3.806231 11.67073,9.773387 0.88461,1.852341 1.60838,3.573619 1.60838,3.825063 0,0.251443 0.36291,1.578654 0.80645,2.949358 0.93887,2.901382 2.05749,12.65512 2.06736,18.026083 0.009,4.853072 -1.11745,15.241453 -1.85913,17.146675 -0.33389,0.85769 -0.7097,2.135434 -0.83515,2.839434 -0.12544,0.704 -0.74311,2.432 -1.3726,3.84 -2.17197,4.858163 -4.65843,7.770211 -8.13767,9.530547 -1.41851,0.717699 -2.13654,0.868592 -4.11385,0.864519 -2.14713,-0.0044 -2.60201,-0.122039 -4.38871,-1.134759 z m 7.36651,-3.072598 C 35.81715,77.326462 39.92799,54.752242 35.86713,36.1542 33.74641,26.441667 29.57772,20.57655 24.81488,20.604285 c -4.96378,0.02891 -8.72967,5.43974 -11.22474,16.127739 -1.70967,7.323574 -1.70703,21.770675 0.005,29.331578 1.53917,6.796147 4.13303,12.342348 6.75411,14.441689 1.45299,1.16377 3.88998,2.015018 5.09041,1.778096 0.528,-0.104205 1.50594,-0.465853 2.1732,-0.803654 z M 23.68,77.052024 C 23.06913,76.441157 23.04,75.985358 23.04,67.038651 v -9.373373 l -1.46462,-1.426627 c -2.35431,-2.293245 -2.9006,-3.856022 -2.2392,-6.405782 0.30911,-1.191632 0.78875,-1.916647 2.05356,-3.104115 L 23.04,45.17941 v -9.343693 c 0,-8.994699 0.0245,-9.368209 0.65637,-10.000062 0.45719,-0.457194 0.86988,-0.590965 1.36,-0.440835 1.52282,0.466463 1.50363,0.335628 1.50363,10.252999 v 9.397431 l 1.58493,1.750131 c 1.92332,2.123795 2.57507,3.323014 2.57507,4.738102 0,1.243578 -1.28385,3.393591 -2.9984,5.021315 L 26.56,57.65757 v 9.354003 9.354 l -0.84315,0.663225 c -1.0439,0.821127 -1.23675,0.823328 -2.03685,0.02323 z m 2.6148,-24.209597 c 0.65017,-0.588397 0.75947,-1.746845 0.25394,-2.69144 -0.46318,-0.865462 -2.63526,-0.852438 -3.50874,0.02104 -0.84455,0.844547 -0.80737,1.461722 0.14545,2.414544 0.9124,0.9124 2.26124,1.023392 3.10935,0.255859 z m 25.00376,37.000752 c 0.60008,-0.472019 0.8781,-1.060675 1.02018,-2.16 0.40964,-3.169686 3.14344,-7.755273 5.9716,-10.016576 2.59264,-2.072989 4.19058,-2.919616 6.95324,-3.683987 3.444239,-0.952947 6.288703,-0.982058 9.55285,-0.09777 3.210521,0.86976 5.549488,2.180973 7.870784,4.41232 3.091059,2.971284 4.072422,4.713789 5.478486,9.727584 0.587018,2.093204 1.429143,2.704327 2.936711,2.131149 0.818291,-0.311113 0.83798,-0.381891 0.687641,-2.47208 -0.170285,-2.367565 -1.534025,-5.896643 -3.241331,-8.387901 -1.543514,-2.252256 -4.834003,-5.311516 -7.268787,-6.757993 -3.437866,-2.0424 -6.772733,-2.936893 -11.019933,-2.955818 -3.882662,-0.01731 -6.690641,0.641456 -10.131841,2.376941 -3.58744,1.809242 -7.75092,5.968819 -9.26166,9.252976 -0.36432,0.792 -0.9348,1.958214 -1.26772,2.591587 -0.33292,0.633376 -0.70301,2.202736 -0.82241,3.487469 -0.19082,2.053165 -0.14551,2.388227 0.37443,2.76841 0.80105,0.585747 1.19854,0.546083 2.16776,-0.216311 z m 32.868401,0.0088 c 0.647277,-1.024579 0.328538,-2.908298 -0.848138,-5.01239 -1.504569,-2.69042 -2.42966,-3.765511 -4.640752,-5.393223 -2.742528,-2.018934 -5.648601,-2.838701 -9.372649,-2.64391 -2.448455,0.12807 -3.369022,0.33127 -5.037112,1.111862 -2.26278,1.058883 -5.67008,4.012883 -6.48118,5.618931 -0.28852,0.5713 -0.80866,1.540484 -1.15586,2.153738 -0.82242,1.45263 -0.86302,3.995885 -0.0713,4.464979 0.36826,0.218183 5.1386,0.305805 13.931864,0.255901 11.481503,-0.06516 13.414726,-0.143744 13.675097,-0.555888 z m 23.978419,0.177613 c 0.72841,-0.877677 0.22856,-1.879763 -1.56003,-3.127501 -2.59225,-1.808374 -4.61698,-1.64801 -7.625349,0.603952 -1.164838,0.871955 -1.389965,2.110298 -0.48,2.640304 0.308,0.179395 2.522369,0.33055 4.920819,0.335901 3.42099,0.0076 4.44352,-0.08992 4.74456,-0.452656 z m 10.39176,-0.04047 c 0.71679,-0.71679 0.62481,-1.334681 -0.33048,-2.220016 -1.00927,-0.935361 -3.29403,-2.077127 -4.15649,-2.077127 -0.96889,0 -2.05017,0.91505 -2.05017,1.734992 0,0.885069 1.10454,2.371722 2.0442,2.751386 1.18262,0.477833 3.9421,0.361609 4.49294,-0.189235 z m -76.41643,-1.25136 c 2.08086,-0.617948 2.82105,-1.473062 3.45866,-3.995654 1.39762,-5.52937 5.58329,-11.383254 10.26063,-14.350042 2.1913,-1.389913 6.03159,-3.259731 6.71116,-3.267619 0.35686,-0.0041 1.7191,-0.292141 3.0272,-0.64 1.308099,-0.347856 3.324099,-0.634784 4.479999,-0.637619 2.371383,-0.0058 7.488413,1.043286 9.550202,1.957994 0.752707,0.333936 1.582288,0.607158 1.843507,0.607158 0.605194,0 5.073469,-4.243014 7.717917,-7.328832 l 2.030016,-2.368833 -0.0089,-7.231168 -0.0089,-7.231168 -0.962179,-1.28 C 88.435745,40.59836 81.786987,34.130968 77.965383,31.051659 67.799099,22.860036 57.01665,17.734738 42.57594,14.229745 37.642,13.032198 36.81543,13.850224 39.6178,17.15729 c 2.61897,3.090632 4.29143,6.168146 6.02936,11.094734 0.84934,2.407655 0.90278,2.600897 2.25664,8.16 l 0.89621,3.68 v 11.52 c 0,10.318717 -0.0608,11.694301 -0.58289,13.191504 -0.32059,0.919325 -0.77979,2.887808 -1.02044,4.374403 -0.24065,1.486595 -0.73435,3.284682 -1.09711,3.995751 -0.36275,0.711065 -0.65956,1.558838 -0.65956,1.883942 0,0.325101 -0.50355,1.590838 -1.11901,2.812746 -0.61546,1.22191 -1.11946,2.326857 -1.12,2.45544 -0.002,0.452028 -2.36417,3.943744 -3.73496,5.520716 -1.27591,1.467831 -1.70463,2.620221 -1.17269,3.152164 0.35981,0.359811 2.14761,0.237948 3.82737,-0.260884 z M 72.384001,59.707979 c -0.2112,-0.2112 -0.38393,-0.8952 -0.383843,-1.52 1.34e-4,-0.966048 0.239504,-1.342122 1.6,-2.513754 2.163939,-1.863542 2.16391,-2.686435 -1.57e-4,-4.511203 -1.342637,-1.132128 -1.6,-1.524419 -1.6,-2.438832 0,-1.103635 0.642419,-1.752211 1.735574,-1.752211 0.273709,0 1.292698,0.72 2.264426,1.6 0.971728,0.88 2.051728,1.6 2.4,1.6 0.348272,0 1.428272,-0.72 2.4,-1.6 1.861437,-1.685728 2.923341,-1.990944 3.817142,-1.097142 0.904231,0.90423 0.582407,1.840441 -1.257142,3.657142 -0.968,0.955974 -1.76,2.016752 -1.76,2.357283 0,0.340528 0.792,1.38624 1.76,2.323799 1.855715,1.797363 2.072515,2.410336 1.261856,3.567715 -0.82495,1.177782 -1.908691,0.907465 -3.563334,-0.888797 -1.167194,-1.267094 -1.682826,-1.6 -2.478215,-1.6 -0.781779,0 -1.353622,0.354589 -2.580307,1.6 -1.611267,1.635866 -2.797293,2.034707 -3.616,1.216 z M 53.90546,41.066568 c -1.13445,-1.134442 -0.98508,-1.895827 0.63809,-3.25263 1.65484,-1.383274 2.31067,-2.653159 1.82456,-3.53288 -0.17902,-0.323968 -0.98307,-1.219156 -1.78679,-1.9893 C 53.77759,31.521611 53.12,30.756143 53.12,30.59072 c 0,-0.58073 0.6612,-1.527524 1.30879,-1.874105 0.79451,-0.425207 1.79639,0.139369 3.52206,1.984736 0.66421,0.710283 1.45035,1.230673 1.85915,1.230673 0.41107,0 1.41825,-0.671434 2.40007,-1.6 1.15563,-1.092937 1.96086,-1.6 2.54085,-1.6 0.86515,0 2.129081,0.979829 2.129081,1.650518 0,0.203785 -0.864001,1.200343 -1.920001,2.214576 -1.056,1.014231 -1.9149,2.035498 -1.90866,2.269482 0.0192,0.719325 0.72741,1.696883 2.14866,2.965731 1.486267,1.326893 1.726305,2.309002 0.7748,3.170096 -1.00132,0.906189 -1.96426,0.6324 -3.76473,-1.070403 -0.96327,-0.911027 -1.99146,-1.6 -2.38776,-1.6 -0.39237,0 -1.16358,0.510486 -1.76784,1.170182 -1.06955,1.16768 -2.62695,2.343716 -3.10901,2.347709 -0.14,0.0013 -0.608,-0.351347 -1.04,-0.783347 z M 97.838721,84.172024 C 99.668884,83.054946 100.8,82.007474 100.8,81.429723 c 0,-0.883059 -1.333663,-2.124016 -3.348921,-3.116121 -1.860035,-0.915693 -2.147804,-0.97249 -3.18798,-0.6292 -1.586074,0.523449 -1.758628,1.463849 -0.701021,3.820512 0.460857,1.026928 0.837923,1.981795 0.837923,2.121926 0,0.451152 1.044358,1.425184 1.52808,1.425184 0.257891,0 1.117677,-0.396 1.91064,-0.88 z m 12.921049,-1.227088 c 0.99423,-0.360061 1.99621,-0.454832 3.45571,-0.326861 1.28823,0.112954 2.21394,0.04872 2.48,-0.172093 1.69721,-1.408563 -2.01232,-4.765702 -5.2452,-4.746931 -2.58486,0.01501 -5.67556,2.289367 -5.47507,4.028941 0.18832,1.63393 2.21189,2.148624 4.78456,1.216944 z m -4.63512,-7.014867 C 108.22446,74.54716 108.8,74.00572 108.8,73.413224 c 0,-1.135104 -1.0927,-2.30249 -3.05282,-3.261488 -2.08649,-1.020826 -3.56659,-0.920704 -5.808075,0.392893 -2.693238,1.578342 -2.998883,3.301766 -0.819642,4.621657 0.660295,0.399917 1.701347,1.131812 2.313447,1.626429 0.6121,0.494621 1.31619,0.899309 1.56465,0.899309 0.24846,0 1.65565,-0.79288 3.12709,-1.761955 z m 16.80451,-15.57129 c 1.94803,-2.110099 1.64656,-3.611533 -1.30405,-6.494726 -2.06344,-2.016285 -2.07335,-2.608679 -0.0795,-4.751184 3.21139,-3.450829 3.41979,-4.619655 1.2165,-6.822951 -1.93753,-1.937523 -2.9741,-1.915094 -5.64312,0.122106 -3.65037,2.786227 -2.94959,2.638944 -12.55899,2.639504 -8.132975,3.2e-4 -8.591925,0.03242 -9.199999,0.640496 -0.352,0.352 -0.650003,0.892 -0.66223,1.2 -0.01222,0.308 -0.03027,2.616723 -0.0401,5.130499 -0.01542,3.94936 0.05956,4.656048 0.551827,5.2 0.540003,0.596695 1.024617,0.629501 9.299262,0.629501 5.15765,0 9.08074,0.133514 9.58781,0.326301 0.47203,0.179465 1.6694,1.041427 2.66083,1.915472 1.63522,1.441609 1.94831,1.589593 3.37176,1.593702 1.43332,0.0041 1.6757,-0.110886 2.8,-1.32872 z M 91.620919,27.10845 c -0.687132,-0.255877 -1.380918,-1.200366 -1.380918,-1.879926 0,-0.190066 0.859286,-1.152332 1.909526,-2.13837 1.05024,-0.986037 2.219872,-2.433886 2.599188,-3.217442 0.988089,-2.041124 0.713174,-3.385813 -1.282391,-6.272497 -2.042301,-2.954296 -2.563609,-4.9970498 -2.020509,-7.9174239 0.273306,-1.4696169 0.702647,-2.4211625 1.671351,-3.7042024 1.127936,-1.49393984 1.449993,-1.72656434 2.390345,-1.72656434 2.038618,0 2.711924,1.55026634 1.261348,2.90421954 -1.165194,1.0875831 -2.136132,3.1148211 -2.136132,4.4600743 0,1.2360432 0.453888,2.1959282 2.168279,4.5854948 1.150813,1.604037 2.078995,4.147183 2.078995,5.696287 0,1.784526 -1.331094,4.497671 -3.321907,6.770978 -2.096141,2.393583 -2.833427,2.850388 -3.937175,2.439372 z m 28.204541,-0.44188 c -0.432,-0.432 -0.78546,-1.014216 -0.78546,-1.293813 0,-0.279597 0.73702,-1.186143 1.63783,-2.014546 3.95812,-3.639986 4.41286,-5.649461 2.04709,-9.045898 -1.70537,-2.448323 -2.03068,-3.139585 -2.48822,-5.2873616 -0.70942,-3.3301324 0.99416,-7.4504923 3.61445,-8.74206674 0.80252,-0.3955739 1.00885,-0.3851531 1.73002,0.087377 1.08591,0.71151444 1.04646,1.74732274 -0.12257,3.21835614 -0.51777,0.651528 -1.18396,1.8197251 -1.48041,2.5959933 -0.5219,1.3665664 -0.51639,1.4671555 0.17346,3.1668333 0.39186,0.9654886 0.92457,1.9314596 1.1838,2.1465996 0.25923,0.215141 0.75173,0.940799 1.09444,1.612573 0.34271,0.671774 0.83619,1.221407 1.09661,1.221407 0.38794,0 0.4735,0.607178 0.4735,3.36 0,2.752822 -0.0856,3.36 -0.4735,3.36 -0.26042,0 -0.74963,0.54 -1.08713,1.2 -0.73801,1.44324 -4.57151,5.2 -5.30622,5.2 -0.28723,0 -0.87569,-0.353454 -1.30769,-0.785454 z M 105.13814,26.420822 C 104.86417,26.029661 104.64,25.596237 104.64,25.457658 c 0,-0.138579 1.00324,-1.333964 2.22944,-2.656411 3.5136,-3.789424 3.68075,-5.399472 0.97496,-9.391054 -2.98918,-4.4096366 -3.04074,-7.639807 -0.18406,-11.5313825 1.02272,-1.39322264 1.34778,-1.62678614 2.26406,-1.62678614 1.12485,0 2.0756,0.6786703 2.0756,1.48162144 0,0.2617489 -0.42543,1.0074631 -0.94541,1.6571428 -0.51997,0.6496796 -1.24117,1.8527107 -1.60266,2.6734022 -0.7709,1.7501837 -0.6383,2.3003245 1.2183,5.0545992 1.53617,2.278899 2.92977,5.432678 2.92977,6.630176 0,0.515302 -0.55584,2.081295 -1.23521,3.479985 -2.22049,4.571594 -5.83982,7.171842 -7.22665,5.191871 z"
     id="path4023"
     inkscape:connector-curvature="0" />
</svg>
